<?xml version="1.0" encoding="utf-8"?>
<!-- Generator: Adobe Illustrator 15.1.0, SVG Export Plug-In  -->
<!DOCTYPE svg PUBLIC "-//W3C//DTD SVG 1.1//EN" "http://www.w3.org/Graphics/SVG/1.1/DTD/svg11.dtd" [
	<!ENTITY ns_flows "http://ns.adobe.com/Flows/1.0/">
]>
<svg version="1.1"
	 xmlns="http://www.w3.org/2000/svg" xmlns:xlink="http://www.w3.org/1999/xlink" xmlns:a="http://ns.adobe.com/AdobeSVGViewerExtensions/3.0/"
	 x="0px" y="0px" width="423px" height="271px" viewBox="0 0 423 271" overflow="visible" enable-background="new 0 0 423 271"
	 xml:space="preserve">
<defs>
</defs>
<path d="M54.719,252.696c23.649,7.805,34.387-12.947,40.2-32.455c4.684-15.717,3.837-28.958,0.315-44.626
	c-2.549-11.344,5.175-28.4-8.856-33.973c-1.17-0.465-2.592,1.106-3.062,1.971c-1.995,3.667-3.98,8.4-3.734,12.651
	c0.066,1.125,0.13,2.251,0.196,3.377c0.9,3.183,0.14,6.075-2.281,8.679c-1.092-2.892-0.78-6.428-1.092-9.458
	c-0.041-0.208-0.159-0.35-0.356-0.424c-2.612-0.942-7.393,1.218-9.264,3.264c-1.082,1.184-1.67,3.089-1.524,4.672
	c0.177,1.917,0.537,3.629,1.076,5.475c1.219,4.173-5.489,5.786-4.453,1.304c0.486-2.101,6.502-15.444,0.629-15.383
	c-5.404,0.055-9.902,9.839-11.948,13.537c-3.163,5.721,2.397,18.556-5.448,18.146c-4.329-0.224-4.546-0.81-4.095-5.987
	c0.421-4.833,1.299-16.991,7.111-18.39c7.037-1.696,21.929-15.905,6.847-14.514c-1.44,0.132-2.868,0.282-4.314,0.356
	c-4.817,0.249,0.373-2.908,2.161-2.768c2.729,0.214,4.25-0.196,6.492-1.699c2.854-1.915,5.781-9.01,1.243-10.895
	c-2.902-1.204-5.336-1.081-8.38-0.624c-1.58,0.239-3.265,1.086-4.697,1.731c0.474-0.214-8.94,4.476-2.328-2.296
	c6.443-6.598,13.881-3.633,20.91-0.452c1.864,0.843,3.95,1.818,5.879,0.59c12.75-8.11-14.634-16.659-21.51-13.561
	c-2.79,1.256-6.173,6.564-9.107,6.081c-3.814-0.627,3.552-5.182,2.476-4.435c3.033-2.106,6.304-3.018,9.942-2.241
	c2.607,0.559,5.833-2.784,5.375-5.31c-1.583-8.748-21.774,2.585-24.787,4.81c-1.746,1.289-9.812,7.332-10.413,9.015
	c1.062-2.972,2.766-5.825,4.369-8.523c3.455-5.815,11.084-7.632,15.63-12.35c0.402-0.419,1.162-1.554,0.333-1.952
	c-14.014-6.722-24.7,6.178-29.968,17.504c-1.557,3.347-0.398,7.432,0.223,10.81c0.707,3.847,2.942,12.571-4.26,13.449
	c-2.928,0.356-5.378-0.176-6.238-3.477c-0.93-3.566,12.253-17.786,4.396-22.24c-2.681-1.519,1.099-7.118,2.361-6.249
	c1.562,1.074,1.058,0.988,2.754,1.406c0.961,0.238,1.869-0.537,2.503-1.152c6.958-6.746-2.956-8.558-7.715-10.197
	c-11.639-4.011,5.012-0.288,8.159,0.34c1.699,0.337,3.638,0.156,5.131-0.793c0.944-0.602,2.359-1.953,2.517-3.131
	c0.095-0.701,0.188-1.4,0.284-2.101c-0.601-4.243,1.729-6.777,6.987-7.598c-0.326,0.739-0.783,1.72-0.414,2.49
	c1.617,3.368,7.796,4.732,10.914,2.75c0.828-0.527,2.284-1.887,2.318-2.908c0.083-2.556,0.099-1.799-0.683-4.953
	c-0.57-1.746-1.132-3.492-1.689-5.242c-1.85,1.271-1.5,1.995,1.051,2.175c3.99,1.522,8.299-2.759,9.711-5.913
	c3.046-6.804-14.324-7.118-16.946-6.694c-1.806,0.292-3.762,0.488-5.462,1.235c-8.655,3.802-4.945-3.383-0.203-3.875
	c5.208-0.541,10.706,0.372,15.763,1.454c3.207,0.688,9.616,2.116,10.235,6.04c0.619,3.925,1.168,7.566,2.476,11.38
	c4.325,12.612,14.512,5.125,12.485-5.119c-1.28-6.474-6.947-12.32-11.208-16.978c-1.715-1.875-12.607-10.443-12.657-11.934
	c-0.677,0.839-1.354,1.678-2.031,2.517c3.758-1.973,11.507-3.86,15.464-1.083c2.062,1.447,1.373,5.821,1.751,7.951
	c0.759,4.268,4.191,7.853,7.256,10.623c5.261,4.759,13.739,9.727,21.058,9.549c4.299-0.104,5.146-3.997,2.821-6.821
	c-4.178-5.075-10.688-7.57-14.975-12.588c-4.659-5.453-7.091-14.165-6.05-21.245c0.526-3.574,4.84,2.902,5.221,3.533
	c1.933,3.203,2.997,7.076,4.217,10.593c0.528,1.519,1.412,5.826,3.679,5.524c9.099-1.217,1.124-18.452,4.656-21.415
	c2.447-2.053,1.885-6.18,0.956-8.782c-0.793-2.215-9.046-1.703-10.454-1.925c-3.454-0.547-5.302-2.89-0.832-3.999
	c4.115-1.018,8.438-1.286,12.662-1.458c2.199-0.089,4.909-0.479,6.366,1.436c0.98,1.41,1.8,2.911,2.461,4.502
	c-1.038-2.37-0.037-1.718-2.601-2.092c-1.192-0.172-2.58,1.394-2.859,2.401c-0.044,0.154-0.087,0.309-0.13,0.464
	c-0.098,0.349,0.067,0.587,0.349,0.753c3.044,0.992,4.433,3.118,4.168,6.378c1.521-1.174,1.344-2.324-0.533-3.451
	c-0.155-0.156-0.342-0.227-0.564-0.212c-7.078,0.988-6.146,8.496-5.197,13.981c0.423,2.446,2.172,5.792,5.172,4.541
	c1.902-0.793,2.55-1.218,4.145-2.525c3.508-2.875,4.213-0.059,6.614-0.089c7.233-0.091,5.053-10.918,3.703-15.036
	c-0.337-1.03-5.5-8.417-2.471-9.311c1.276-0.376,2.555-1.324,3.449-2.302c2.038-2.228,3.163-4.811,1.12-7.351
	c-2.277-2.831-12.527,0.143-15.59-0.354c-4.667-0.755-5.458-9.504-11.867-8.215c-3.45,0.694-5.257,2.397-6.878,5.483
	c-6.85,4.617-8.441,4.759-4.776,0.427c0.487-0.841,0.927-1.709,1.315-2.604c0.492-0.999,0.76-2.695-0.047-3.658
	c-0.795-0.947-2.287-0.598-3.256-0.501c-0.292,0.013-0.57,0.084-0.834,0.212c-0.737,0.265-1.472,0.531-2.208,0.797
	c-3.648,2.975-5.215,2.869-4.703-0.315c6.21-1.754,13.541-0.416,19.906-0.377c1.838,0.011,4.394-0.231,5.456-2.032
	c2.119-3.591-5.158-4.665-4.581-7.655c-1.061,0.783-2.124,1.566-3.186,2.35c6.956,1.527,11.193,3.068,14.587,9.606
	c1.394,2.685,4.336,6.029,7.608,5.436c1.113-0.201,2.142-1.306,2.464-2.343c1.357-4.362,7.33,3.699,10.612,3.903
	c3.112,0.195,4.773-3.262,9.125-2.367c2.74,0.564-7.774,6.291-8.499,7.379c-1.637,2.457-1.177,5.611-2.357,8.439
	c-0.318,0.762,0.075,1.393,0.945,1.127c14.693-4.488-1.046,4.913,2.559,9.208c4.705,5.608,12.196-1.95,14.174-5.934
	c0.386-0.777,0.767-1.789,0.628-2.651c-0.058-1.143-0.374-2.211-0.944-3.208c0.163-2.423,1.14-3.443,2.935-3.062
	c1.536,7.258-0.214,10.848-4.586,15.59c-5.188,5.628-10.851,3.067-16.496,6.657c-1.804,1.147-2.832,2.366-2.71,4.431
	c0.039,0.208,0.159,0.349,0.355,0.424c9.122,3.158,20.818-1.756,26.308-9.269c2.621-3.585,4.347,4.201,1.434,5.214
	c-2.571,0.894-5.12,1.843-7.652,2.838c-2.656,1.045-5.896,2.212-7.551,4.7c-0.236,0.355-0.568,0.966-0.243,1.376
	c2.105,2.653,13.14,1.857,16.101,2.197c3.982,0.458,7.073,0.354,9.458-3.151c0.701-1.028,0.896-10.895,3.658-4.771
	c1.685,3.737,4.153,6.889,5.486,10.823c-0.075-0.217-10.155,4.279-11.105,6.383c-0.925,2.051-0.576,2.573,0.018,4.712
	c-0.454-1.638-3.745-4.798-5.368-5.885c-2.338-1.567-7.732,1.375-9.219,3.231c-1.825,2.281-3.707,5.881-1.593,8.449
	c0.262,0.319,8.27,0.479,7.295,0.292c2.026,0.387,3.539,8.214,4.467,10.292c0.957-0.91,1.911-1.82,2.867-2.729
	c-1.351,0.137-6.558-4.238-8.107-5.106c-3.361-1.883-7.048-2.072-10.716-2.853c-3.765-0.802-4.739-2.187-7.808,0.641
	c-2.285,2.107-3.96,7.245-3.117,10.192c0.657,2.289,15.748,0.249,10.279,4.083c-2.282,1.6-2.453,3.112-1.504,5.547
	c1.552,3.985-6.162-4.867-7.086-5.711c-0.667-0.611-2.163-0.263-2.946,0.089c-2.471,1.115-2.959,3.45-3,5.837
	c-0.053,3.024,6.678,4.805,2.752,8.616c-0.976,0.946-1.518,1.836-1.573,3.143c-0.013,0.292-0.013,0.653,0.349,0.754
	c3.497,0.976,7.284-0.607,10.574-1.72c6.487-2.194,7.631-1.798,12.535,1.365c3.979,2.568,7.788-0.795,8.697-4.43
	c0.302-1.215,5.68,0.881,7.373,0.461c1.222-0.303,2.703-1.426,3.411-2.488c6.239-9.367-11.974-5.192-14.346-8.508
	c-0.329,0.73-0.657,1.458-0.987,2.188c4.339-3.523,10.139-3.838,14.307-7.825c3.685-3.527-2.866-9.382,0.826-11.362
	c2.83-1.518,5.245-3.029,7.706-5.106c2.162-1.825,3.615-5.783,4.223-1.232c0.368,1.556,0.818,3.088,1.351,4.596
	c0.885,2.736,2.899,2.515-1.176,0.552c-1.978-0.952-3.424-1.619-5.511-1.217c-1.113,0.214-2.142,1.298-2.464,2.344
	c-1.677,5.44,5.727,8.144,9.442,9.81c2.341,1.05,1.142-0.557-2.16-0.208c-1.155,0.124-2.331,0.243-3.419,0.653
	c-2.136,0.805-2.934,1.258-4.16,3.124c-0.286,0.434-0.493,0.887-0.242,1.376c1.582,3.097,10.212,6.638,10.377,9.605
	c0.955-0.91,1.91-1.819,2.866-2.73c-4.435,0.125-9.86-3.236-13.167,1.621c-1.482,2.175-0.764,4.19,0.089,6.503
	c0.36,0.971,5.378,10.684,5.786,10.824c-8.615-2.946-14.942-5.281-24.411-3.731c-2.847,0.465-7.617,0.871-8.949,4.048
	c-0.089,0.212-0.287,0.776-0.012,0.971c1.47,1.037,3.709,0.763,5.407,0.876c6.076,0.412,12.366,3.184,17.792,5.775
	c0.573,0.305,1.146,0.611,1.719,0.916c1.292,1.9,2.46,2.039,3.507,0.417c-2.521,0.033-5.351-1.024-7.756-1.738
	c-4.105-1.22-8.183-3.175-12.44-3.805c-2.251-0.334-6.681,0.132-6.665,3.432c0.003,0.958,0.114,1.705,0.602,2.583
	c2.107,0.229,2.176,0.011,0.202-0.66c-1.598-0.827-3.083-1.828-4.458-3.003c-3.84-3.021-2.661-6.505-4.677-9.881
	c-0.154-0.156-0.342-0.227-0.564-0.213c-0.908,0.026-6.248,1.716-5.622-0.528c0.357-1.286,0.117-1.754-1.163-2.1
	c-0.833-0.227-1.742-0.032-2.587,0.092c-5.6,0.827-9.72-0.795-4.732-6.083c0.665-0.706,1.97-2.425,1.762-3.575
	c-1.027-5.677-14.74,6.277-15.283,10.318c-0.91,6.769,6.47,11.306,12.163,11.409c4.085,0.074,3.417,1.768,3.865,5.842
	c0.239,2.158,0.303,4.477,1.496,6.351c2.199,3.457,5.98-7.396,7.629-0.035c1.934,8.632-22.507,4.633-12.881-0.924
	c1.006-0.581,2.652-2.164,2.751-3.4c0.625-7.749-16.782-4.274-19.783,0.13c-4.937,7.252,16.427,20.631,21.974,22.867
	c2.401,0.967,5.196,0.187,6.667-1.974c2.015-2.958,2.325-5.722,7.247-5.852c3.386-0.088,6.797,0.475,10.168,0.723
	c2.084,0.153,5.326-0.403,5.807-2.973c0.398-2.131-3.465-4.181-4.767-5.119c-0.535-0.4-1.069-0.799-1.603-1.2
	c6.67-3.65,9.435-2.132,8.295,4.554c-0.258,2.074-0.354,1.882-0.078,3.671c0.054,0.349,0.375,0.464,0.683,0.473
	c2.725,0.084,8.711,3.906,2.726,3.818c-2.448-0.037-5.433,0-7.773,0.905c-3.724,1.441-5.863,3.381-7.272,7.141
	c-0.636,1.696-0.601,7.812-0.668,8.689c-0.227,2.874-10.695-5.965-11.421-6.466c-2.85-1.971-7.554-5.192-11.25-4.958
	c-1.075,0.068-2.773,1.215-2.859,2.398c-0.248,3.431,6.307,4.545,6.636,8.417c0.956-0.911,1.91-1.82,2.867-2.731
	c-5.555,0.491-11.387-5.479-16.334-1.467c-4.375,3.548,3.055,7.277,5.727,8.122c1.804,0.571,9.001,2.484,10.685,1.975
	c-1.491,0.451-2.569,1.517-3.612,2.604c-2.067,2.153-4.986,11.312-1.984,13.036c2.012,1.155,5.417-3.993,6.21-5.028
	c1.308-1.71,5.584-9.085,6.774-4.059c0.445,1.882,0.1,1.689-1.003,3.269c-5.004,7.162-3.969,19.851-4.809,28.093
	c-0.592,5.809-2.657,15.144,1.074,20.366c0.818,1.145,4.189-1.551,3.312-2.778c-3.069-4.295-1.534-11.444-1.129-16.261
	c0.731-8.715,1.37-17.663,3.231-26.214c0.957-4.4,5.745-7.368,1.482-12.115c-2.692-2.997-8.924,5.931-9.917,7.244
	c-1.074,1.421-2.656,3.627-2.543,4.007c-0.705-2.386,0.573-8.312,3.001-9.543c2.468-1.251,3.612-1.755,4.214-4.468
	c0.076-0.343-0.047-0.597-0.349-0.755c-4.229-2.223-9.426-1.725-14.012-3.175c-9.146-2.894,5.722,0.536,7.796,0.353
	c1.199-0.105,2.981-1.374,2.867-2.73c-0.271-3.181-6.79-5.817-6.65-7.754c-0.952,0.801-1.906,1.6-2.859,2.401
	c9.854-0.626,24.951,26.308,28.389,6.625c0.79-4.522-1.484-11.08,7.521-11.885c2.457-0.219,4.832,0.013,7.291-0.315
	c1.271-0.17,2.451-1.191,3.283-2.1c3.06-3.345-1.929-7.975-5.338-7.828c-0.195,0.009,0.534-14.332-9.256-11.837
	c-1.657,0.422-11.152,4.288-7.455,7.915c1.408,1.38,2.933,2.47,4.531,3.623c1.36,0.98,5.318,0.929,2.724,0.86
	c-3.394-0.091-6.766-0.637-10.167-0.721c-3.741-0.096-9.348,0.781-11.18,4.665c-1.472,3.12-1.212,3.851-4.962,1.939
	c-4.226-2.156-7.948-5.571-11.463-8.713c-2.575-2.301-5.026-4.786-7.147-7.511c-3.854-4.952,18.18-4.04,10.748,0.251
	c-12.714,7.339,9.666,12.495,16.604,6.959c3.051-2.436,3.429-6.851,1.864-10.135c-0.637-1.336-2.316-1.505-3.554-1.191
	c-2.398,0.611-3.399,3.859-4.006,1.933c-0.486-1.544-0.317-12.27-3.188-11.894c-2.233,0.293-4.531,0.706-6.775,0.076
	c-6.616-1.858-9.306-11.241-1.478-15.233c2.031-1.038-2.181,6.354-2.246,6.701c-0.584,3.13,0.97,3.766,3.759,4.189
	c1.608,0.245,8.707-2.185,7.974,0.442c-0.293,1.053,0.593,1.78,1.185,2.449c1.86,2.1,5.776-3.113,5.767,1.128
	c-0.008,3.795,3.188,6.896,6.129,8.866c2.751,1.843,9.382,5.756,10.616,0.048c0.142-0.654-2.082-4.988-1.883-4.423
	c0.483,1.376,3.701,1.819,6.174,2.613c4.946,1.589,9.761,3.414,14.95,3.998c4.051,0.455,6.928-2.952,3.179-5.695
	c-4.203-3.075-9.664-4.771-14.569-6.301c-2.381-0.744-4.804-1.15-7.259-1.519c-1.473-0.556-2.667-0.202-3.582,1.062
	c1.736-0.412,3.496-0.698,5.276-0.86c7.636-0.91,14.434,0.561,21.25,3.939c2.461,1.219,4.238,1.09,6.271-0.5
	c1.504-1.177,1.397-3.091,0.667-4.7c-1.366-3.005-3.088-5.737-4.879-8.504c-5.18-8.003,0.992-5.003,5.887-5.143
	c1.229-0.035,2.938-1.419,2.866-2.729c-0.159-2.857-7.818-6.661-9.836-8.606c0.818,0.79,9.733-1.13,11.334-3.141
	c0.289-0.364,1.066-1.282,0.571-1.789c-2.965-3.035-7.936-3.551-11.159-6.582c-2.891-2.718,3.689,1.344,5.28,1.872
	c0.636,0.211,1.437-0.277,1.979-0.504c0.802-0.333,1.917-1.251,2.026-2.188c0.337-2.88-1.334-11.859-3.217-13.812
	c-0.373-0.389-0.98-0.167-1.396,0c-2.263,0.904-3.825,3.043-5.454,4.763c-3.781,3.991-9.807,5.011-12.895,9.545
	c-1.307,1.919,0.395,4.069,1.439,5.616c2.723,4.029-10.297,8.464-12.656,10.379c-0.5,0.406-1.5,1.469-0.986,2.187
	c1.045,1.461,3.939,1.175,5.497,1.298c2.28,0.324,4.56,0.645,6.839,0.967c2.092,2.984,2.002,3.543-0.272,1.682
	c-1.269-0.819-2.739-0.504-4.082-0.339c-4.001,0.491-3.858,6.462-6.968,5.475c-3.646-1.159-2.463-3.454-6.033-3.723
	c-1.475-0.111-3.842,0.927-5.151,1.356c3.009-0.986-12.312,3.643-10.121,1.514c1.575-1.526,1.734-2.501,1.57-4.476
	c-0.341-4.076-6.311-7.534,0.59-1.018c2.33,2.201,5.861,2.934,7.879-0.029c1.342-1.97,0.609-4.549-0.166-6.541
	c-0.251-0.643,3.485-3.044,3.919-4.007c2.062-4.569-8.706-4.122-10.538-4.114c-2.931,0.012-1.528-7.394,2.922-5.594
	c0.579,0.233,9.867,2.205,7.796,1.635c3.94,1.084,7.923,6.808,11.681,6.425c0.871-0.089,3.414-1.509,2.867-2.73
	c-2.843-6.356-0.776-11.413-9.218-11.591c-0.228-0.004,3.13-3.97,4.906-1.132c0.613,0.979,2.464,1.254,3.428,1.489
	c1.817,0.444,3.22-0.565,4.43-1.703c1.235-1.164,1.128-1.768,0.87-3.445c-0.733-4.753,7.032-4.326,9.437-6.344
	c5.25-4.405-2.948-13.61-4.753-17.612c-1.511-3.352-4.49-4.196-6.791-0.817c-1.651,2.425-1.504,10.025-4.343,10.109
	c-2.375,0.07-5.741-0.95-8.221-1.228c-2.169-0.337-4.352-0.482-6.546-0.433c-2.595,0.851-2.753,0.802-0.475-0.15
	c3.687-1.702,12.506-2.798,14.459-7.126c0.791-1.751,1.776-11.747-2.001-10.784c-1.894,0.483-3.101,1.89-4.422,3.209
	c-4.458,4.445-7.908,8.164-13.582,9.464c-3.202,0.735-9.478-0.97-3.188-0.594c6.416,0.383,12.041-5.973,15.995-10.294
	c5.677-6.206,3.688-24.973-7.451-12.8c-1.301,1.423-1.105,3.123-0.626,4.821c1.178,4.158-9.289,7.639-5.35,3.772
	c0.774-0.76,1.215-1.216,1.784-2.087c2.109-3.24,2.376-7.664-2.101-6.956c-3.942,0.624-4.115,4.317-2.943,0.433
	c1.012-3.354-0.609-3.052,2.902-4.708c2.359-1.112,9.75-5.809,6.747-9.388c-2.241-2.67-8.23-0.629-10.688,0.647
	c-3.442,1.785-5.188-6.177-10.539-4.69c-1.935,0.538-2.615,0.892-4.149,2.175c-0.395,0.33-0.761,0.742-0.976,1.216
	c-1.603,3.552,1.07,1.017-1.203-0.821c-3.674-2.97-3.353-8.049-6.648-10.998c-2.385-2.137-8.55-1.935-11.352-2.55
	c-1.271-0.279-2.951,1.129-3.186,2.349c-0.063,0.333-0.279,0.908-0.011,1.233c0.908,1.197,1.918,2.302,3.029,3.316
	c1.284,2.688,2.333,2.785,3.148,0.289C85.21,7.887,79.768,6.943,74.696,7.037c-5.64,0.104-13.56,1.499-15,8.062
	c-0.08,0.367,0.06,0.57,0.35,0.754c2.332,1.487,5.618,0.025,7.979-0.714c6.9-2.162,3.08,4.272,2.127,8.129
	c-1.042,4.23,8.611-0.916,9.286-1.372c1.593-1.074,3.363-2.775,4.266-4.495c4.524-8.611,9.732,3.036,13.537,4.93
	c3.238,1.611,8.65-0.065,11.994-0.364c7.485-0.669-3.033,7.276-2.927,7.123c-1.042,1.528-0.954,3.132-0.082,4.744
	c1.57,2.902,3.354,5.611,4.394,8.784c0.365,1.408,0.607,2.836,0.725,4.286c-0.073,3.939-0.089,4.848-0.052,2.727
	c-1.295-0.936-2.845-2.321-4.616-1.376c-3.308,1.764-7.368,7.337-9.189,1.141c-0.526-1.792-1.856-10.206,1.197-5.549
	c0.608,0.927,2.482-0.037,3.037-0.502c1.669-1.401,2.028-3.1,2.109-5.213c0.077-1.979-4.39-6.206-4.45-5.988
	c-0.954,0.799-1.906,1.599-2.86,2.399c1.632,0.238,3.64,1.05,5.425,1.324c1.06,0.164,2.333-1.188,2.735-2.02
	c1.367-2.824-1.667-6.572-3.296-8.712c-1.895-2.491-10.788-0.627-13.173-0.394c-0.614,0.061-22.072,4.467-16.443,8.938
	c3.643,2.894,9.271,2.945,13.735,3.253c6.341,0.439,0.861,6.275,0.496,9.026c-0.567,4.281,0.782,9.129,0.44,13.499
	c1.136,2.513,1.269,3.032,0.399,1.559c-0.973-1.519-1.483-3.744-2.075-5.448c-1.409-4.054-3.157-11.034-7.121-13.48
	c-6.978-4.307-9.239,5.465-9.026,10.386c0.296,6.88,3.649,13.638,8.036,18.773c4.034,4.723,12.295,6.737,14.766,12.771
	c1.036-1.181,0.692-1.62-1.033-1.314c-1.232-0.2-2.436-0.624-3.619-1.009c-2.478-0.809-4.822-2.004-7.112-3.232
	c-5.563-2.986-10.913-7.456-13.409-13.384c-1.295-3.075,0.431-9.353-3.697-10.796c-5.025-1.756-12.394-0.432-16.982,1.975
	c-0.92,0.483-2.071,1.355-2.033,2.517c0.104,3.163,6.96,6.376,9.162,8.602c5.438,5.5,10.836,11.233,14.052,18.367
	c1.497,3.32,0.103,11.297-3.328,5.729c-1.909-3.1-2.731-7.131-3.468-10.653c-0.995-4.759-0.533-6.454-5.332-8.85
	c-7.458-3.724-25.412-7.136-32.025,0.095c-1.562,1.706-3.751,6.771,0.458,7.509c1.976,0.346,2.757,0.457,4.73-0.41
	c3.876-1.703,7.752-1.921,11.916-1.79c8.583,0.273,4.872,6.108,2.078,4.773c-0.835-0.398-1.992,0.649-2.505,1.153
	c-3.057,3.003,3.664,16.691-4.608,9.804c-0.763-0.636,1.952-4.038,0.187-4.893c-2.635-1.28-3.959-1.137-6.626-0.183
	c-5.333,1.907-7.063,9.015-7.355,13.779c-0.059,0.972-16.579-2.275-19.733,0.475c-0.456,0.397-1.294,1.219-1.106,1.926
	c0.691,2.599,3.208,3.662,5.446,4.791c2.437,1.228,12.8,3.599,6.758,2.963c-4.229-0.444-6.782,5.031-7.746,8.426
	c-0.38,1.337-1.352,3.421,0.249,4.328c6.656,3.773-1.827,10.604-3.147,14.586c-1.867,5.629-2.082,10.828,4.651,11.698
	c4.856,0.627,9.548-1.8,12.014-5.859c1.668-2.746,0.639-7.074,0.324-9.951c-0.775-7.086-1.81-11.082,2.669-17.63
	c5.405-7.902,9.861-10.18,18.826-8.579c-0.723-0.129-5.001,2.788-7.173,4.32c-5.294,3.731-7.998,7.677-10.885,13.355
	c-0.147,0.287-4.14,8.563-0.75,7.393c9.679-3.345,13.764-14.895,24.671-17.724c1.658-0.431,11.083-0.133,7.191,0.212
	c-2.779,0.248-5.01,1.165-7.493,2.449c-3.365,1.741-9.477,5.423-10.261,9.618c-0.443,2.371,5.356,2.001,6.77,1.365
	c5.567-2.508,9.982-7.79,17.021-5.296c1.671,0.592,3.545,1.54,5.326,1.765c3.472-0.514,5.742,0.918,6.81,4.293
	c-0.541,1.146-1.337,1.173-2.393,0.083c-5.543-2.381-15.25-6.677-20.998-2.325c-3.071,2.325-11.111,9.101-8.084,13.565
	c2.062,3.043,13.454-7.124,18.832-2.564c2.661,2.255-11.289,6.074-12.554,7.456c-8.411,9.193,7.706,6.141,11.393,6.767
	c7.536,1.277-10.294,8.914-11.651,9.468c-1.102,0.45-2.364,1.459-2.997,2.473c-3.174,5.087-4.14,11.3-5.071,17.142
	c-0.395,2.478-1.956,9.339,1.053,10.912c0.897,0.469,8.053-0.643,9.227-1.135c3.927-1.644,4.533-4.625,4.81-8.69
	c0.245-3.609-0.431-7.19,0.024-10.798c0.684-2.33,1.758-4.473,3.223-6.43c1.689-0.353,3.377-0.705,5.067-1.056
	c-0.493,2.231-1.159,4.411-1.995,6.543c-0.571,1.655-3.334,9.089,0.862,9.298c3.53,0.176,7.378-1.723,9.406-4.701
	c1.818-2.67-1.433-13.963,0.978-14.333c3.42-0.525,2.596-0.825,2.76,3.397c0.11,2.843,0.62,5.77,2.495,7.95
	c1.557,1.809,5.08-1.948,5.645-2.776c5.675-8.336,0.287-19.031,5.273-28.199c-1.021,0.656-2.042,1.314-3.062,1.971
	c10.847,4.309,7.511,16.189,7.377,25.578c-0.131,9.115,3.598,17.958,4.204,27.068c0.872,13.124-3.854,27.617-9.293,39.344
	c-5.564,11.997-15.664,17.019-28.272,12.858C56.195,249.144,53.305,252.229,54.719,252.696L54.719,252.696z"/>
<path d="M142.807,223.316c1.156,0.375-1.336,3.964-6.292,3.649c-1.532,1.983-4.1,5.677-4.1,8.38c0,0.992,0.316,1.577,1.352,1.577
	c1.442,0,3.064-1.352,7.75-4.686l0.226,1.983c-2.658,2.433-7.524,7.254-11.354,7.254c-1.757,0-2.838-1.216-2.838-3.019
	c0-1.487,0.585-3.199,1.171-4.505l-0.09-0.09l-2.475,2.137l-0.318-2.001c2.703-2.072,5.181-4.371,6.848-7.209
	c-2.749,0-3.104-0.036-3.76-0.318l-0.024-0.312c1.989-3.109,4.193-2.838,6.593-2.838c0.463,0,3.364-5.993,5.977-5.993
	c0.585,0,1.442,0.135,1.442,0.855c0,0.812-3.73,4.507-4.182,5.137H142.807z"/>
<path d="M158.182,233.409c-2.748,3.198-7.704,7.434-12.164,7.434c-3.29,0-4.821-2.929-4.912-5.902
	c-0.18-5.902,6.354-11.94,12.21-11.895c1.442,0,3.244,0.36,3.244,2.162c0,2.208-2.208,5.542-10.858,8.381l-0.09,0.991
	c-0.135,1.712,1.352,2.297,2.793,2.297c3.199,0,7.74-3.824,10.128-5.716L158.182,233.409z M152.596,226.155
	c0-0.316-0.226-0.586-0.54-0.496c-2.253,0.586-4.866,2.749-6.083,5.722C149.938,230.029,152.641,226.92,152.596,226.155z"/>
<path d="M178.698,231.559l0.296,1.625c-2.388,2.117-7.028,7.66-10.318,7.66c-1.712,0-2.522-1.443-2.522-2.974
	c0-2.704,2.433-5.677,3.874-7.75l1.314-1.493c-2.613,1.938-6.315,5.683-8.343,8.296c-0.675,0.856-2.342,3.064-3.559,3.064
	c-1.983,0-2.479-2.839-2.524-4.371c-0.134-3.109,2.704-7.66,5.317-9.867c0.585-0.496,0.991-0.541,1.757-0.541
	c2.703,0.09,2.478,0.721,2.478,0.992c0,1.756-5.677,6.307-5.677,7.389c0,0.27,0.225,0.495,0.495,0.495
	c0.316,0,0.722-0.406,0.902-0.63c3.604-4.596,10.588-10.137,11.895-10.137c0.18,0,1.756,0.226,2.027,0.855
	c0.271,0.676,0.541,1.487,0.676,2.433c0,1.757-5.543,5.182-5.543,8.291c0,0.405,0.361,0.811,0.812,0.811
	c1.081,0,3.119-1.187,3.93-1.862L178.698,231.559z"/>
<path d="M193.665,222.209c0.797,0-1.237,3.518-6.193,3.202c-1.532,1.983-5.103,7.231-5.103,9.934c0,0.992,0.316,1.577,1.352,1.577
	c1.442,0,3.064-1.352,7.75-4.686l0.226,1.983c-2.658,2.433-5.95,6.983-11.206,6.983c-1.757,0-2.987-0.946-2.987-2.749
	c0-1.487,0.585-3.199,1.171-4.505l-0.09-0.09l-2.298,1.848l-0.495-1.712c2.704-2.072,7.127-5.85,8.795-8.688
	c-2.749,0-4.083,0.141-4.54-0.352l-0.044-0.358c1.443-2.358,2.018-2.294,6.711-2.294c0.891,0,2.504-4.978,4.712-4.978
	c0.585,0,1.441,0.135,1.441,0.855c0,0.812-1.918,3.435-2.369,4.065L193.665,222.209z"/>
<path d="M194.26,234.444c0.144,0.539,10.407-8.493,12.884-8.493c1.081,0,2.165,0.653,2.165,1.69c0,0.855-1.803,2.838-2.344,3.469
	c-2.793,3.379-2.658,3.515-2.658,3.965c0,0.585,0.451,0.946,0.991,0.946c1.487,0,4.776-2.433,6.083-3.289l0.226,1.847
	c-2.073,1.577-7.524,5.993-10.002,5.993c-1.352,0-2.073-1.172-2.073-2.389c0-2.838,3.109-6.262,4.731-8.38l-0.09-0.09
	c-7.705,5.272-9.957,10.047-11.399,10.047c-1.577,0-1.803-3.514-1.803-4.551c0-3.108,1.172-5.271,2.749-7.839
	c5.317-8.786,13.019-16.436,14.551-16.436c0.721,0,3.201,0.08,3.201,0.982c0,3.063-15.238,18.703-18.122,21.542L194.26,234.444z"/>
<path d="M230.185,233.459c-2.127,2.697-4.209,3.832-7.663,3.832c-1.986,2.035-4.304,3.55-7.285,3.55
	c-2.461,0-4.731-2.461-4.92-6.766c-0.097-3.548,1.654-5.915,4.305-7.947c2.556-2.083,6.029-3.955,8.914-4.098
	c1.041-0.046,2.534,1.021,2.534,2.298c0,0.708-0.568,0.994-1.087,1.278c1.419,0.378,1.703,1.371,1.703,2.791
	c0,2.081-0.948,3.737-1.845,5.583c2.081,0.378,3.407-1.421,4.872-2.507L230.185,233.459z M215.757,231.235
	c-1.041,1.041-1.94,2.886-1.94,4.353c0,1.373,0.899,1.797,2.083,1.797c1.562,0,2.553-0.897,3.642-1.892
	c-0.332-0.756-0.567-1.373-0.567-2.175c0-2.461,2.224-5.441,2.032-5.536C219.399,228.728,217.178,229.863,215.757,231.235z"/>
<path d="M242.489,227.391c0.937-0.847,5.308-5.084,6.424-5.084c0.355,0,0.847,0.134,1.025,2.453
	c0.089,1.071-1.115,2.097-1.829,2.721c-1.428,1.294-4.595,4.818-4.595,6.825c0,0.714,0.401,0.982,1.116,0.982
	c1.693,0,5.53-3.124,6.869-4.193l0.267,1.918c-2.274,2.186-7.002,7.314-10.303,7.314c-1.651,0-2.632-1.383-2.632-2.944
	c0-1.337,0.49-2.586,0.937-3.746l-0.09-0.089c-1.739,1.516-4.773,6.155-7.227,6.155c-2.185,0-3.345-3.122-3.345-5.041
	c0-4.326,3.346-8.787,6.2-10.66c0.625-0.401,1.204-0.491,1.963-0.491c0.624,0,2.899-0.401,2.721,0.936
	c-0.089,0.715-1.293,1.963-1.784,2.366c-1.382,1.561-1.65,1.962-3.391,3.21c-1.382,0.982-2.452,1.963-2.452,3.837
	c0,0.223,0.044,0.669,0.356,0.669c0.803,0,3.257-1.293,5.353-3.167L242.489,227.391z"/>
<path d="M266.378,232.372l0.451,1.712c-2.748,2.748-7.659,6.848-11.264,6.668c-3.019-0.135-6.353-1.847-7.163-5.137
	c-0.271,0.271-0.587,0.586-0.992,0.586c-0.45,0-0.766-0.451-0.766-0.857c0-0.585,0.721-1.216,1.081-1.577l9.776-8.965
	c0.091-1.487,0.947-2.929,2.569-2.929c1.352,0,1.621,0.405,1.756,1.667c0.181,1.711-0.439,3.148-0.439,5.131
	c0,3.694-1.677,6.537-4.561,8.294c2.884,0.496,4.641-0.855,6.848-2.523L266.378,232.372z M251.061,233.318
	c1.667,0.09,2.657,1.487,3.514,2.658c2.703-1.667,3.424-2.433,3.56-5.047c-0.136-0.946-0.315-2.162-0.586-3.694L251.061,233.318z"/>
<path d="M274.215,237.058c-0.856,0.676-3.74,3.019-4.776,3.019c-1.261,0-3.874-2.974-3.964-5.316
	c-0.181-5.632,11.61-10.74,16.837-10.875c2.073-0.045,2.852,0.963,2.852,1.503c0,0.541-1.171,0.992-1.577,1.126
	c0.856,0.361,1.307,0.857,1.307,1.848c0,1.442-3.92,4.596-3.92,6.714c0,0.766,0.677,1.081,1.396,1.081
	c1.894,0,4.461-2.298,6.398-3.605l0.361,1.667c-1.938,2.208-7.976,7.028-10.183,7.028c-1.487,0-2.163-1.081-2.163-2.388
	c0-1.442,1.081-3.829,1.667-5.046l-0.09-0.09L274.215,237.058z M268.764,235.886c0.045,0.226,0.226,1.036,0.9,0.901
	c0.901-0.181,3.361,0.425,11.219-9.055l-0.09-0.09C270.071,230.93,268.764,233.678,268.764,235.886z"/>
<path d="M309.893,231.2l0.361,1.983c-2.388,2.117-7.029,7.66-10.318,7.66c-1.712,0-2.522-1.443-2.522-2.974
	c0-2.704,2.433-5.677,3.874-7.75l-0.09-0.09c-2.613,1.938-4.91,4.28-6.938,6.893c-0.675,0.856-2.343,3.064-3.559,3.064
	c-1.983,0-2.479-2.839-2.524-4.371c-0.134-3.109,2.705-7.66,5.317-9.867c0.585-0.496,0.991-0.541,1.758-0.541
	c2.703,0.09,2.478,0.721,2.478,0.992c0,1.756-5.677,6.307-5.677,7.389c0,0.27,0.226,0.495,0.495,0.495
	c0.315,0,0.721-0.406,0.901-0.63c3.604-4.596,11.895-10.137,13.201-10.137c0.181,0,0.45,0.226,0.721,0.855
	c0.271,0.676,0.541,1.487,0.676,2.433c0,1.757-5.542,5.182-5.542,8.291c0,0.405,0.36,0.811,0.812,0.811
	c1.081,0,3.063-1.577,3.874-2.252L309.893,231.2z"/>
<path d="M327.609,226.188c-1.501,2.389-3.686,5.377-3.686,8.317c0,0.736,0.046,2.297,1.046,2.297c1.548,0,8.815-6.438,10.271-7.403
	l-1.971,3.966c-2.138,2.39-7.617,7.482-10.939,7.482c-1.729,0-2.412-1.839-2.412-3.309c0-1.148,0.183-2.344,0.365-3.493
	c-1.594,1.378-5.825,5.836-7.873,5.836c-2.049,0-3.322-4.412-3.322-6.02c0-5.423,9.055-10.019,12.923-10.249
	c0.957-0.046,1.319,0.598,1.912,1.288c1.502-2.621,5.506-12.133,8.829-12.133c0.908,0,1.456,0.919,1.456,1.748
	c0,1.378-1.229,3.262-1.958,4.411L327.609,226.188z M313.092,234.827c-0.045,0.414,0.183,0.781,0.683,0.872
	c0.547,0.139,7.873-5.376,8.602-8.087C314.367,230.231,313.365,231.794,313.092,234.827z"/>
<path d="M335.406,234.8c2.111-1.871,9.925-9.499,12.398-9.628c1.08-0.057,2.22,1.012,2.274,2.048
	c0.044,0.854-1.651,2.929-2.16,3.585c-2.612,3.521-2.47,3.65-2.445,4.1c0.03,0.585,0.499,0.921,1.038,0.893
	c1.484-0.078,4.644-2.679,5.901-3.604l0.323,1.834c-1.988,1.683-7.201,6.377-9.676,6.507c-1.351,0.071-2.131-1.062-2.195-2.277
	c-0.146-2.834,2.778-6.416,4.287-8.615l-0.095-0.086c-7.419,5.668-9.418,10.555-10.856,10.631c-1.575,0.083-1.986-3.415-2.039-4.451
	c-0.162-3.104,0.894-5.325,2.334-7.972c4.85-9.052,13.391-17.396,14.921-17.476c0.72-0.037,1.951,0.213,1.997,1.114
	c0.161,3.059-13.368,18.657-16.1,21.642L335.406,234.8z"/>
<path d="M370.387,233.363c-2.026,2.568-4.009,3.649-7.299,3.649c-1.892,1.938-4.1,3.38-6.938,3.38c-2.343,0-4.506-2.344-4.687-6.443
	c-0.09-3.378,1.577-5.632,4.101-7.568c2.433-1.983,5.678-3.199,8.426-3.334c0.99-0.045,2.478,0.406,2.478,1.622
	c0,0.675-0.541,0.946-1.036,1.216c1.352,0.361,1.622,1.306,1.622,2.658c0,1.983-0.901,3.56-1.757,5.316
	c1.981,0.361,3.244-1.352,4.641-2.388L370.387,233.363z M356.646,231.246c-0.991,0.991-1.848,2.748-1.848,4.145
	c0,1.307,0.856,1.712,1.983,1.712c1.486,0,2.433-0.855,3.469-1.802c-0.315-0.721-0.54-1.307-0.54-2.072
	c0-2.343,2.117-5.182,1.937-5.272C360.115,228.858,357.998,229.939,356.646,231.246z"/>
<path d="M382.432,228.136c0.945-0.855,5.361-5.136,6.488-5.136c0.359,0,0.855,0.135,1.036,2.478c0.09,1.081-1.126,2.118-1.848,2.748
	c-1.441,1.307-4.641,4.866-4.641,6.893c0,0.722,0.405,0.992,1.127,0.992c1.711,0,5.587-3.154,6.938-4.235l1.014,0.692
	c-2.299,2.208-7.817,8.634-11.151,8.634c-1.667,0-2.658-1.397-2.658-2.974c0-1.352,0.495-2.613,0.946-3.784l-0.091-0.09
	c-1.757,1.532-4.776,5.586-7.254,5.586c-2.207,0-3.424-2.523-3.424-4.46c0-4.37,3.379-8.876,6.263-10.768
	c0.631-0.406,1.216-0.496,1.982-0.496c0.631,0,2.929-0.406,2.748,0.946c-0.09,0.722-1.306,1.983-1.802,2.389
	c-1.396,1.577-1.667,1.982-3.425,3.243c-1.396,0.992-2.478,1.983-2.478,3.875c0,0.226,0.045,0.675,0.36,0.675
	c0.811,0,3.289-1.307,5.406-3.198L382.432,228.136z"/>
<path d="M394.528,230.345c-1.577,2.478-3.47,3.649-5.406,5.586l-0.181-1.814c1.172-0.946,2.117-2.24,2.974-3.457
	c-0.946-0.09-1.217-0.451-1.217-1.396c0-3.244,4.596-6.488,5.678-6.488c0.45,0,0.811,0.36,0.811,0.767
	c0,0.45-0.136,0.855-0.315,1.261c4.235-0.586,6.243,0.606,6.692,1.147c0.677,0.855,0.662,0.785,0.752,1.596
	c0,1.396-0.056,1.132-1.092,1.987c-1.306,1.127-3.515,3.334-3.515,5.137c0,0.72,0.722,1.261,1.397,1.261
	c1.938,0,4.775-2.928,6.263-4.055l0.315,1.667c-1.712,1.937-6.895,6.938-9.462,6.938c-1.892,0-3.064-1.757-3.064-3.47
	c0-3.063,2.344-5.451,4.146-7.614l-0.089-0.089L394.528,230.345z"/>
<path d="M422.729,232.372l0.45,1.712c-2.748,2.748-7.659,6.848-11.264,6.668c-3.019-0.135-6.353-1.847-7.163-5.137
	c-0.271,0.271-0.586,0.586-0.992,0.586c-0.45,0-0.766-0.451-0.766-0.857c0-0.585,0.721-1.216,1.081-1.577l9.777-8.965
	c0.09-1.487,0.946-2.929,2.568-2.929c1.352,0,1.621,0.405,1.757,1.667c0.18,1.711,0.856,3.243,0.856,5.226
	c0,3.694-2.974,6.442-5.857,8.2c2.884,0.496,4.641-0.855,6.848-2.523L422.729,232.372z M407.411,233.318
	c1.667,0.09,2.657,1.487,3.514,2.658c2.703-1.667,3.424-2.433,3.56-5.047c-0.136-0.946-0.315-2.162-0.586-3.694L407.411,233.318z"/>
<text transform="matrix(1 0 0 1 309.0894 270.6816)" font-family="'Skia-Regular'" font-size="34.4012">MEDIA</text>
</svg>
