<?xml version="1.0" encoding="utf-8"?>
<!-- Generator: Adobe Illustrator 15.1.0, SVG Export Plug-In  -->
<!DOCTYPE svg PUBLIC "-//W3C//DTD SVG 1.1//EN" "http://www.w3.org/Graphics/SVG/1.1/DTD/svg11.dtd" [
	<!ENTITY ns_flows "http://ns.adobe.com/Flows/1.0/">
]>
<svg version="1.1"
	 xmlns="http://www.w3.org/2000/svg" xmlns:xlink="http://www.w3.org/1999/xlink" xmlns:a="http://ns.adobe.com/AdobeSVGViewerExtensions/3.0/"
	 x="0px" y="0px" width="670px" height="338px" viewBox="0 0 670 338" overflow="visible" enable-background="new 0 0 670 338"
	 xml:space="preserve">
<defs>
</defs>
<path fill-rule="evenodd" clip-rule="evenodd" d="M137,40.771c0.309,2.338,1.958,4.131,0,6c-3.417-0.409-1.271-2.701-5-1
	C131.771,42.209,133.438,40.543,137,40.771z"/>
<path fill-rule="evenodd" clip-rule="evenodd" d="M111,47.771c-0.184-0.851,0.39-0.943,1-1c0.667,0,1.333,0,2,0
	c-1.036,2.631-1.197,6.137-1,10c-2.921-1.078-3.239-4.762-3-9c0.81,0.189,0.997,1.004,2,1C112.184,47.921,111.61,47.828,111,47.771z
	"/>
<path fill-rule="evenodd" clip-rule="evenodd" d="M306,48.771c1.931,1.193,5.458,3.424,3,6
	C307.402,53.369,306.445,51.326,306,48.771z"/>
<path fill-rule="evenodd" clip-rule="evenodd" d="M298,49.771c2.677,3.055,1.241-0.875,5,2c0.708,3.709-1.708,4.291-1,8
	c-0.972-0.027-0.776-1.225-1-2c-0.733-0.934-1.818-1.516-3-2C298,53.771,298,51.771,298,49.771z"/>
<path fill-rule="evenodd" clip-rule="evenodd" d="M125,50.771c2.337,0.329,4.131,1.202,6,2
	C130.181,56.561,124.396,54.309,125,50.771z"/>
<path fill-rule="evenodd" clip-rule="evenodd" d="M292,54.771c2.308,3.025,0.353,10.314,1,15
	C290.345,67.426,290.243,58.322,292,54.771z"/>
<path fill-rule="evenodd" clip-rule="evenodd" d="M128,67.771c2.544,0.102,2.363,3.727,1,5c-1.313-0.354-1.573-1.761-3-2
	C126.354,69.458,127.761,69.199,128,67.771z"/>
<path fill-rule="evenodd" clip-rule="evenodd" d="M349,71.771c2.614,0.719,3.065,3.602,6,4c-0.111,1.889-3.306,0.693-3,3
	C350.824,76.613,349.926,74.18,349,71.771z"/>
<path fill-rule="evenodd" clip-rule="evenodd" d="M596,73.771c8.592,9.979,12.23,25.882,9,40
	C601.663,100.775,599.317,86.787,596,73.771z"/>
<path fill-rule="evenodd" clip-rule="evenodd" d="M357,75.771c3.316,1.35,1.745,7.588,5,9c-3.841,3.23-2.922-7.412-7-2
	C355.777,80.549,357.101,78.872,357,75.771z"/>
<path fill-rule="evenodd" clip-rule="evenodd" d="M98,79.771c1.15,5.17-8.624,8.027-10,14c-2.712-1.506,1.591-4.314,2-6
	c-0.31-1.357-2.504-0.83-4-1c-1.172-2.262,5.605-0.485,7-2c-0.431-2.236-4.928-0.405-7-1C87.422,79.86,95.884,82.989,98,79.771z"/>
<path fill-rule="evenodd" clip-rule="evenodd" d="M528,104.771c-6.004-6.179-1.494-11.158-2-19c4.263,6.212-0.658,10.39,5,16
	C531.306,104.078,528.111,102.883,528,104.771z"/>
<path fill-rule="evenodd" clip-rule="evenodd" d="M144,93.771c-6.657-2.049-9.352,9.605-14,3
	C131.992,96.828,140.549,88.594,144,93.771z"/>
<path fill-rule="evenodd" clip-rule="evenodd" d="M567,92.771c-1.492,1.857-4.489,5.217-7,3
	C561.008,93.445,563.442,92.547,567,92.771z"/>
<path fill-rule="evenodd" clip-rule="evenodd" d="M591,94.771c6.058,5.275,0.415,22.252,5,29c-1.688,1.945-3.452-4.49-9-2
	C586.752,111.19,589.803,103.908,591,94.771z"/>
<path fill-rule="evenodd" clip-rule="evenodd" d="M282,99.771c1.049,1.951,2.006,3.994,3,6
	C281.081,109.156,280.11,102.595,282,99.771z"/>
<path fill-rule="evenodd" clip-rule="evenodd" d="M289,100.771c-0.925,1.742,0.034,5.367-3,5
	C285.804,102.908,285.876,100.314,289,100.771z"/>
<path fill-rule="evenodd" clip-rule="evenodd" d="M610,105.771c3.102,0.756,3.155,8.115,2,10
	C609.219,114.553,610.143,109.629,610,105.771z"/>
<path fill-rule="evenodd" clip-rule="evenodd" d="M274,113.771c-2.809-1.603,2.168-3.737,2-6
	C280.548,109.35,274.511,111.35,274,113.771z"/>
<path fill-rule="evenodd" clip-rule="evenodd" d="M350,123.771c1.889-2.782,4.038,2.55,8,1c0.049,2.811-0.908,6.184-3,4
	c-0.557,6.557,4.561,7.439,5,13c-4.136-3.864-8.235-7.765-10-14C352.887,132.548,352.021,125.015,350,123.771z"/>
<path fill-rule="evenodd" clip-rule="evenodd" d="M332,125.771c1.975,1.883,3.866,7.403,2,10
	C331.836,133.936,331.896,129.876,332,125.771z"/>
<path fill-rule="evenodd" clip-rule="evenodd" d="M575,151.771c0.649,1.017,2.299,1.034,2,3c3.146,0.5,3.909-2.18,6,0
	c-6.865,2.787-14.946-2.946-21,1c-4.779-11.26,7.074-14.151,9-22c3.895,6.87-4.492,9.213-8,14c4.229,3.25,3.863-5.006,10-3
	c-0.725,2.275-0.892,5.108-2,7c5.545-2.977,16.671-7.463,17-15c2.319-0.319,3.839,0.161,5,1
	C589.302,144.74,583.45,149.555,575,151.771z"/>
<path fill-rule="evenodd" clip-rule="evenodd" d="M590,144.771c1.23,0.437,2.054,1.279,2,3c-2.091,0.576-2.854,2.479-6,2
	C586.52,147.291,588.438,146.209,590,144.771z"/>
<path fill-rule="evenodd" clip-rule="evenodd" d="M58,154.771c-1.667,0-3.333,0-5,0C54.179,151.088,56.252,148.997,58,154.771z"/>
<path fill-rule="evenodd" clip-rule="evenodd" d="M317,159.771c0.909-2.715,3.504,1.02,5,1c-0.507,3.159-2.944,4.39-3,8
	C313.588,165.306,324.098,161.552,317,159.771z"/>
<path fill-rule="evenodd" clip-rule="evenodd" d="M343,161.771c-1.984,1.892-0.485,4.725,0,7c-5.016,2.016-1.454-4.546-4-5
	C339.658,162.43,341.138,161.909,343,161.771z"/>
<path fill-rule="evenodd" clip-rule="evenodd" d="M590,162.771c0.638,3.638-2.07,3.93-5,4
	C584.856,163.628,587.564,163.336,590,162.771z"/>
<path fill-rule="evenodd" clip-rule="evenodd" d="M561,173.771c-1.504,5.162-5.985,7.348-6,14
	C553.205,183.282,555.958,174.75,561,173.771z"/>
<path fill-rule="evenodd" clip-rule="evenodd" d="M76,178.771c0.162-1.172,1.823-0.844,3-1c0.167,2.833,1.833,4.167,2,7
	C77.955,184.15,79.045,179.393,76,178.771z"/>
<path fill-rule="evenodd" clip-rule="evenodd" d="M310,179.771c4.243-2.21,9.432,3.21,14,4c-0.427,1.907-2.857,1.81-2,5
	C317.441,186.33,312.485,184.286,310,179.771z"/>
<path fill-rule="evenodd" clip-rule="evenodd" d="M567,182.771c2.085-2.979,4.073,2.515,7,2
	C571.962,187.703,568.768,183.417,567,182.771z"/>
<path fill-rule="evenodd" clip-rule="evenodd" d="M585,182.771c-0.184-0.851,0.39-0.943,1-1c0.667,0,1.333,0,2,0
	c0.184,0.851-0.39,0.943-1,1c1.402,1.598,3.445,2.555,6,3c-1.915,2.809-5.214-1.374-8-1
	C585.615,183.881,586.209,182.983,585,182.771z"/>
<path fill-rule="evenodd" clip-rule="evenodd" d="M52,185.771c2.043-2.3,4.504,3.438,5,6C53.433,191.672,54.064,187.374,52,185.771z
	"/>
<path fill-rule="evenodd" clip-rule="evenodd" d="M42,185.771c3.377,2.623,3.74,8.26,5,13C43.047,196.725,43.506,190.266,42,185.771
	z"/>
<path fill-rule="evenodd" clip-rule="evenodd" d="M37,190.771c3.093-0.093,2.98,3.02,3,6C37.578,196.194,37.776,192.995,37,190.771z
	"/>
<path fill-rule="evenodd" clip-rule="evenodd" d="M32,195.771c2.862,1.365,0.888,8.545,0,12
	C25.185,205.911,29.71,199.102,32,195.771z"/>
<path fill-rule="evenodd" clip-rule="evenodd" d="M562,211.771c3.797,1.203,7.872,2.128,12,3c-0.223,3.11-4.977,1.689-8,2
	C569.396,213.258,561.34,215.556,562,211.771z"/>
<path fill-rule="evenodd" clip-rule="evenodd" d="M12,212.771c2.211-0.429,2.502,6.008,4,3c2.496,1.908-1.245,4.342,1,7
	c-3.625,0.292,0.095-6.762-5-5C12,216.104,12,214.438,12,212.771z"/>
<path fill-rule="evenodd" clip-rule="evenodd" d="M569,220.771c3.557,0.443,3.948,4.052,6,6
	C572.621,229.084,569.309,223.846,569,220.771z"/>
<path fill-rule="evenodd" clip-rule="evenodd" d="M516,226.771c2.283,5.309-1.8,12.848-6,15c3.146,1.047,1.965,9.066-2,9
	C508.218,240.323,512.98,234.419,516,226.771z"/>
<path fill-rule="evenodd" clip-rule="evenodd" d="M361,246.771c2.501-1.166,3.846-3.487,8-3
	C366.935,245.302,363.885,249.156,361,246.771z"/>
<path fill-rule="evenodd" clip-rule="evenodd" d="M358,250.771c-0.21-1.711,1.705-2.59,0-3
	C361.697,244.164,363.315,251.374,358,250.771z"/>
<path fill-rule="evenodd" clip-rule="evenodd" d="M368,255.771c-6.544,2.792-13.997,3.895-20,0
	C349.987,248.64,364.58,251.059,368,255.771z"/>
<path fill-rule="evenodd" clip-rule="evenodd" d="M382,257.771c1.464,0.869,3.17,1.497,3,4c-1.794-0.127-2.109,1.224-4,1
	c0.443-0.891,0.878-1.788,2-2C382.471,259.968,381.957,259.148,382,257.771z"/>
<path fill-rule="evenodd" clip-rule="evenodd" d="M290,271.771c2.37-1.506,4.911-0.299,3-4c4.878,0.123,7.253,6.952,5,11
	C295.679,276.092,290.341,276.43,290,271.771z"/>
<path fill-rule="evenodd" clip-rule="evenodd" d="M401,272.771c2.208-3.102,4.093,2.495,6,3c-0.31,1.357-2.504,0.829-4,1
	C401.614,276.158,402.85,272.922,401,272.771z"/>
<path fill-rule="evenodd" clip-rule="evenodd" d="M277,281.771c0.429,1.904,2.154,2.513,2,5c-3.179,2.125-9.089,2.831-12,0
	C271.023,285.795,271.317,281.089,277,281.771z"/>
<path fill-rule="evenodd" clip-rule="evenodd" d="M269,291.771c3.146-0.479,3.909,1.424,6,2
	C273.976,296.002,268.305,294.562,269,291.771z"/>
<path fill-rule="evenodd" clip-rule="evenodd" d="M397,302.771c-1.124,1.876-3.876,2.124-5,4
	C389.411,305.076,393.548,301.731,397,302.771z"/>
<path fill-rule="evenodd" clip-rule="evenodd" d="M424,304.771c3.812,5.466-4.748,27.753-13,18c0.247-1.086,1.988-0.679,2-2
	C414.145,326.746,426.059,314.716,424,304.771z"/>
<path fill-rule="evenodd" clip-rule="evenodd" d="M270,310.771C260.973,312.09,264.742,306.188,270,310.771L270,310.771z"/>
<path fill-rule="evenodd" clip-rule="evenodd" d="M413,308.771c0.804,0.529,1.623,1.043,3,1c-1.266,4.068-3.759,6.907-5,11
	c-2.438-2.229-1.89-7.443-4-10C407.929,306.99,414.271,313.293,413,308.771z"/>
<path fill-rule="evenodd" clip-rule="evenodd" d="M497,330.771c-0.716-2.716,4.716,0.716,4-2
	C512.663,329.759,512.001,331.344,497,330.771z"/>
<path fill-rule="evenodd" clip-rule="evenodd" d="M34,331.771c-2.684,2.668,1.414,3.662,3,5c-0.431,2.236-4.928,0.405-7,1
	c-0.637-2.182,2.834-3.182-1-3C29.691,332.797,31.667,332.105,34,331.771z"/>
<path fill-rule="evenodd" clip-rule="evenodd" d="M117,41.771c0.198,5.634,4.996,14.882,14,15c2.349,2.255-2.629-0.828-5,0
	c-0.467,2.134,1.429,1.904,3,2c-2.678,3.572-4.541-2.047-8-1c-0.583,4.584,3.338,4.662,5,7c4.879-2.369,3.867-0.143,8-1
	c-0.437,1.23-1.28,2.054-3,2c0.558,2.039,3.009,1.961,1,4c2.63,0.297,0.787-3.879,4-3c0.162,1.172,1.823,0.844,3,1
	c-0.521,1.479-1.479,2.521-2,4c3.081,0.748,1.219-3.447,5-2c-5.397,3.24,5.398,0.854,6,4c-8.494-1.455-14.54,7.189-17,15
	c3.533-0.467,6.314-1.686,7-5c10.496,4.412,21.692,6.154,31,13c7.424,5.461,10.631,13.327,21,14c5.165,0.336,8.92-1.668,14,3
	c5.094-3.88,6.194-3.357,13-1c-0.027,0.973-1.224,0.775-2,1c0.658,2.995,2.138-0.956,4,0c-1.2,1.313-0.39,1.572,0,3
	c2.143-2.158,5.587-0.512,7,1c-3.686,1.314-5.649,4.351-7,8c-25.417-10.965-49.446-18.34-74-31c-3.735,4.639-3.055,5.812-4,10
	c-2.717,12.041-18.272,22.15-18,39c-8.742-0.258-15.865-2.135-24-3c-1.747,0.92-2.207,3.126-2,6c-3.609-3.797-12.154-9.065-17-3
	c10.938,1.55,25.151,18.518,13,25c-0.012,8.357,1.712,9.343-1,15c-1.354-0.979-1.296-3.371-3-4c-3.12,1.438-1.138,9.082-6,6
	c-0.16,2.827,3.004,2.329,3,5c-5.96,4.184-4.565,12.06-11,14c0.827,4.076,0.153,3.443,0,8c-2.323-0.677-2.677-3.323-5-4
	c0.864,3.47,3.953,4.714,6,7c-1.227,6.117-4.079,15.35-2,17c-1.657,2.01-6.576,0.758-7,4c5.878-2.535,9.557-1.529,13,1
	c-1.938,3.062-7.505,2.495-10,5c0.675,1.568,6.686,0.098,7-2c2.211,0.789,2.502,3.497,4,5c4.422-2.499,7.261,0.972,10,3
	c-1.49,2.156-2.823-1.094-4,2c3.709,3.316,7.045,8.812,13,7c-0.434,3.233-3.364,3.969-5,6c3.023,5.355,7.528-1.535,6-7
	c4.616-0.282-1.164,9.83,5,8c0.007,3.34-4.017,2.65-5,5c0.847,2.931,3.22-0.598,5,0c-0.443,0.891-0.878,1.788-2,2
	c0.272,2.062,4.428,0.238,4,3c1.524-6.225,8.565,4.961,12,3c0.458,2.763-4.629,5.607,1,5c-2.915,3.752-6.248,7.085-10,10
	c-0.275,3.942,4.275,3.058,4,7c-2.593,2.475-4.904-0.973-9,0c1.65-0.678-2.208-7.02-3-5c-1.902-0.097,0.62-3.903,2-4
	c-2.731-4.943-5.614-1.295-9-2c-16.435-3.423-15.611-22.986-29-27c5.692-3.162-5.86-2.38-6-9c-3.679,1.635-6.288-2.614-9-9
	c-4.535,3.421-5.778-20.32-5-32c-7.12,1.547-11.017,6.316-18,8c-2.194,6.678,3.582,11.888,2,17c0.56,2.259,1.56-1.213,3,1
	c0.438,7.444-0.736,10.379,4,13c-1.846,3.907-9.235,2.354-13,3c4.731,0.957,10.065,6.571,13,6c2.272,3.317-4.9,5.732-7,8
	c1.346,2.856,2.556-2.662,5-2c-2.078,5.369,3.912,3.868,7,7c1.008,3.008-2.228,1.772-4,2c5.722,1.146-1.873,5.154,1,11
	c-3.156,0.177-5.964,0.702-6,4c-3.213,0.88-1.371-3.296-4-3c-3.167,0.833-5.083,2.917-7,5c-1.463-4.463,1.226-8.789-5-8
	c-0.423-2.09,0.686-2.648,1-4c-14.176-6.571-8.01-41.931-19-55c1.125-8.943,1.917-15.457,8-21c1.793-0.127,2.109,1.224,4,1
	c-0.027-0.973-1.224-0.776-2-1c7.245-7.226,14.997-19.805,25-29c4.213-3.873,10.161-8.005,13-8c1.236-3.235-3.236-0.765-2-4
	c1.314,0.132,7.235,0.151,4-1c1.519-1.775,6.099,1.844,8,3c2.652-1.446-3.671-2.233-2-6c1.086,0.247,0.678,1.988,2,2
	c1.902-0.097-0.62-3.903-2-4c1.331-2.002,4.439-2.228,7-3c-2.544-1.841-8.411-1.447-4-5c-0.89,0.443-1.789,0.878-2,2
	c3.377-7.629,18.441-12.221,22-23c-2.184-4.107,1.991-6.241,2-11c-10.494,1.84-14.626,10.041-19,18c-2.348-0.319-3.753-1.58-7-1
	c3.745-20.922,14.098-35.234,18-56c0.957,3.198,13.368-4.273,17-8c-1.067-2.272-3.033,2.873-6,2c2.245-2.756,5.194-4.807,7-8
	c-3.793-2.047-6.915-4.85-10-5c-1.913-4.42-1.364-11.303-4-15c1.445-4.889,5.388-7.278,8-11c-1.724-1.332-5.276,4.014-7,6
	c-1.454-0.443,0.102-0.878,0-2c-4.212,0.454-4.795,4.537-7,7c-2.218-2.936,3.814-6.147,5-9c-6.721,1.945-9.978,7.355-16,10
	c-0.017-1.464,4.217-3.17,0-3c4.385-3.996,4.442-2.785,9-8c-8.709,3.624-16.074,8.593-22,15c-1.781-4.475,5.985-7.994,8-12
	c-2.555,0.445-4.598,1.402-6,3c-1.844-6.527,7.644-10.344,13-13c-0.019-1.225-5.651,0.254-7,1c-2.513-0.43,1.663-2.154,3-2
	c-1.333-3.083-4.447,1.863-6-1c1.694-2.307,6.676-1.324,8-4c-2.287-2.221-6.435,2.182-11,1c6.149-4.852,16.956-5.044,26-7
	c-4.334-3.475,9.545-2.969,15-3c-5.486-4.181-13.91-5.424-22-7c-1.2-1.313-0.39-1.572,0-3c-5.355-1.21-7.028-0.07-13,0
	c10.916-4.373,29.298,0.549,41,2c-3.488,2.77-8.648-1.314-13-1c10.905,4.873,27.764,9.52,37,10c0.962,8.038,14.705,3.295,14,13
	c-4.286,0.263-15.575,1.6-14,11c2.466,2.668,4.766,1.043,9,3c0,2,0,4,0,6C124.455,45.084,120.236,45.617,117,41.771z M105,60.771
	c-0.132,1.314-0.151,7.235,1,4c-0.865-7.098,4.116-12.899,1-19c4.136,0.184,3.035-3.314,7-1c0.17-2.838-3.382-1.951-2-6
	c-3.674-0.34-0.926,5.74-6,4c1.047-4.092-0.759-5.855,2-9c0.095,1.571-0.134,3.467,2,3c0.426-5.024,2.66-7.307,1-12
	c2.02-2.347,3.323-6.005,7-4c-0.345-2.655-2.625-3.375-5-4c-12.111,6.011-16.324,15.545-7,28c-1.49,1.178-2.823,2.51-4,4
	c1.636-7.564-1.202-15.029-4-21c-6.335,3.998-9.045,11.621-13,18c-1.301-2.483,2.934-4.15,0-5c-3.149,2.827-4.328,11.4-1,15
	c5.667-1.016,12.167-6.477,17-5c-6.072,1.928-12.439,3.561-16,8c1.193,2.174,13.598,6.341,9,2
	C97.397,62.498,101.329,61.467,105,60.771z M112,48.771c-1.003,0.004-1.19-0.811-2-1c-0.239,4.238,0.079,7.922,3,9
	c-0.197-3.863-0.036-7.369,1-10c-0.667,0-1.333,0-2,0c-0.61,0.057-1.184,0.149-1,1C111.61,47.828,112.184,47.921,112,48.771z
	 M103,74.771c0.27-1.824,3.6-5.605,1-7c-0.279,1.502-4.3,4.211-2,5C104.374,69.086,100.626,78.457,103,74.771z M126,70.771
	c1.427,0.239,1.687,1.646,3,2c1.363-1.273,1.544-4.898-1-5C127.761,69.199,126.354,69.458,126,70.771z M86,83.771
	c2.072,0.595,6.569-1.236,7,1c-1.395,1.515-8.172-0.262-7,2c1.496,0.17,3.69-0.357,4,1c-0.409,1.686-4.712,4.494-2,6
	c1.376-5.973,11.15-8.83,10-14C95.884,82.989,87.422,79.86,86,83.771z M130,96.771c4.648,6.605,7.343-5.049,14-3
	C140.549,88.594,131.992,96.828,130,96.771z M81,184.771c-0.167-2.833-1.833-4.167-2-7c-1.177,0.156-2.838-0.172-3,1
	C79.045,179.393,77.955,184.15,81,184.771z M57,191.771c-0.496-2.562-2.957-8.3-5-6C54.064,187.374,53.433,191.672,57,191.771z
	 M47,198.771c-1.26-4.74-1.623-10.377-5-13C43.506,190.266,43.047,196.725,47,198.771z M40,196.771c-0.02-2.98,0.093-6.093-3-6
	C37.776,192.995,37.578,196.194,40,196.771z M32,207.771c0.888-3.455,2.862-10.635,0-12C29.71,199.102,25.185,205.911,32,207.771z
	 M12,217.771c5.095-1.762,1.375,5.292,5,5c-2.245-2.658,1.496-5.092-1-7c-1.498,3.008-1.789-3.429-4-3
	C12,214.438,12,216.104,12,217.771z M12,237.771c-0.282,3.878,3.278,7.222,6,5c-1.666,1.987,0.09,1.271,0,4
	c2.555,0.765,4.598,1.473,6-1C19.408,241.531,16.477,241.009,12,237.771z"/>
<path fill-rule="evenodd" clip-rule="evenodd" d="M129,45.771c0-2,0-4,0-6c-4.234-1.957-6.534-0.332-9-3
	c-1.575-9.4,9.714-10.737,14-11c0.705-9.705-13.038-4.962-14-13c-9.236-0.48-26.095-5.127-37-10c4.352-0.314,9.512,3.77,13,1
	c-11.702-1.451-30.084-6.373-41-2c5.972-0.07,7.645-1.21,13,0c-0.39,1.428-1.2,1.687,0,3c8.09,1.576,16.514,2.819,22,7
	c-5.455,0.031-19.334-0.475-15,3c-9.044,1.956-19.851,2.148-26,7c4.565,1.182,8.713-3.221,11-1c-1.324,2.676-6.306,1.693-8,4
	c1.553,2.863,4.667-2.083,6,1c-1.337-0.154-5.513,1.57-3,2c1.349-0.746,6.981-2.225,7-1c-5.356,2.656-14.844,6.473-13,13
	c1.402-1.598,3.445-2.555,6-3c-2.015,4.006-9.781,7.525-8,12c5.926-6.407,13.291-11.376,22-15c-4.558,5.215-4.615,4.004-9,8
	c4.217-0.17-0.017,1.536,0,3c6.022-2.645,9.279-8.055,16-10c-1.186,2.853-7.218,6.064-5,9c2.205-2.463,2.788-6.546,7-7
	c0.102,1.122-1.454,1.557,0,2c1.724-1.986,5.276-7.332,7-6c-2.612,3.722-6.555,6.111-8,11c2.636,3.697,2.087,10.58,4,15
	c3.085,0.15,6.207,2.953,10,5c-1.806,3.193-4.755,5.244-7,8c2.967,0.873,4.933-4.272,6-2c-3.632,3.727-16.043,11.198-17,8
	c-3.902,20.766-14.255,35.078-18,56c3.247-0.58,4.652,0.681,7,1c4.374-7.959,8.506-16.16,19-18c-0.009,4.759-4.184,6.893-2,11
	c-3.559,10.779-18.623,15.371-22,23c0.211-1.122,1.11-1.557,2-2c-4.411,3.553,1.456,3.159,4,5c-2.561,0.772-5.669,0.998-7,3
	c1.38,0.097,3.902,3.903,2,4c-1.322-0.012-0.914-1.753-2-2c-1.671,3.767,4.652,4.554,2,6c-1.901-1.156-6.481-4.775-8-3
	c3.235,1.151-2.686,1.132-4,1c-1.236,3.235,3.236,0.765,2,4c-2.839-0.005-8.787,4.127-13,8c-10.003,9.195-17.755,21.774-25,29
	c0.776,0.224,1.973,0.027,2,1c-1.891,0.224-2.207-1.127-4-1c-6.083,5.543-6.875,12.057-8,21c10.99,13.069,4.824,48.429,19,55
	c-0.314,1.352-1.423,1.91-1,4c6.226-0.789,3.537,3.537,5,8c1.917-2.083,3.833-4.167,7-5c2.629-0.296,0.787,3.88,4,3
	c0.036-3.298,2.844-3.823,6-4c-2.873-5.846,4.722-9.854-1-11c1.772-0.228,5.008,1.008,4-2c-3.088-3.132-9.078-1.631-7-7
	c-2.444-0.662-3.654,4.856-5,2c2.1-2.268,9.272-4.683,7-8c-2.935,0.571-8.269-5.043-13-6c3.765-0.646,11.154,0.907,13-3
	c-4.736-2.621-3.562-5.556-4-13c-1.44-2.213-2.44,1.259-3-1c1.582-5.112-4.194-10.322-2-17c6.983-1.684,10.88-6.453,18-8
	c-0.778,11.68,0.465,35.421,5,32c2.712,6.386,5.321,10.635,9,9c0.14,6.62,11.692,5.838,6,9c13.389,4.014,12.565,23.577,29,27
	c3.386,0.705,6.269-2.943,9,2c-1.38,0.097-3.902,3.903-2,4c0.792-2.02,4.65,4.322,3,5c4.096-0.973,6.407,2.475,9,0
	c0.275-3.942-4.275-3.058-4-7c3.752-2.915,7.085-6.248,10-10c-5.629,0.607-0.542-2.237-1-5c-3.435,1.961-10.476-9.225-12-3
	c0.428-2.762-3.728-0.938-4-3c1.122-0.212,1.557-1.109,2-2c-1.78-0.598-4.153,2.931-5,0c0.983-2.35,5.007-1.66,5-5
	c-6.164,1.83-0.384-8.282-5-8c1.528,5.465-2.977,12.355-6,7c1.636-2.031,4.566-2.767,5-6c-5.955,1.812-9.291-3.684-13-7
	c1.177-3.094,2.51,0.156,4-2c-2.739-2.028-5.578-5.499-10-3c-1.498-1.503-1.789-4.211-4-5c-0.314,2.098-6.325,3.568-7,2
	c2.495-2.505,8.062-1.938,10-5c-3.443-2.529-7.122-3.535-13-1c0.424-3.242,5.343-1.99,7-4c-2.079-1.65,0.773-10.883,2-17
	c-2.047-2.286-5.136-3.53-6-7c2.323,0.677,2.677,3.323,5,4c0.153-4.557,0.827-3.924,0-8c6.435-1.94,5.04-9.816,11-14
	c0.004-2.671-3.16-2.173-3-5c4.862,3.082,2.88-4.562,6-6c1.704,0.629,1.646,3.021,3,4c2.712-5.657,0.988-6.643,1-15
	c12.151-6.482-2.062-23.45-13-25c4.846-6.065,13.391-0.797,17,3c-0.207-2.874,0.253-5.08,2-6c8.135,0.865,15.258,2.742,24,3
	c-0.272-16.85,15.283-26.959,18-39c0.945-4.188,0.265-5.361,4-10c24.554,12.66,48.583,20.035,74,31c1.351-3.649,3.314-6.686,7-8
	c-1.413-1.512-4.857-3.158-7-1c-0.39-1.428-1.2-1.687,0-3c-1.862-0.956-3.342,2.995-4,0c0.776-0.225,1.973-0.027,2-1
	c-6.806-2.357-7.906-2.88-13,1c-5.08-4.668-8.835-2.664-14-3c-10.369-0.673-13.576-8.539-21-14c-9.308-6.846-20.504-8.588-31-13
	c-0.686,3.314-3.467,4.533-7,5c2.46-7.811,8.506-16.455,17-15c-0.602-3.146-11.397-0.76-6-4c-3.781-1.447-1.919,2.748-5,2
	c0.521-1.479,1.479-2.521,2-4c-1.177-0.156-2.838,0.172-3-1c-3.213-0.879-1.37,3.297-4,3c2.009-2.039-0.442-1.961-1-4
	c1.72,0.054,2.563-0.77,3-2c-4.133,0.857-3.121-1.369-8,1c-1.662-2.338-5.583-2.416-5-7c3.459-1.047,5.322,4.572,8,1
	c-1.571-0.096-3.467,0.134-3-2c2.371-0.828,7.349,2.255,5,0c-9.004-0.118-13.802-9.366-14-15
	C120.236,45.617,124.455,45.084,129,45.771z M53,154.771c1.667,0,3.333,0,5,0C56.252,148.997,54.179,151.088,53,154.771z
	 M553,38.771c7.776,4.435,15.399-10.076,6-13c-1.666,1.987,0.091,1.271,0,4c-1.742-0.075-3.11,0.223-4,1c-1.386-0.613-0.15-3.85-2-4
	c-0.869,1.464-1.497,3.17-4,3c-0.537,3.537,0.848,5.152,3,6c-0.173-2.506,2.239-2.428,3-4c1.517,0.09,3.396,2.405,6,4
	C557.926,38.376,555.965,37.551,553,38.771z M572,33.771c-6.864,2.121-15.527,5.555-16,11c0.346-5.204-6.579,1.914-4,2
	c0.294-0.889,2.706-4.379,3-2c-1.984,2.307,0.251,1.111,1,3c-1.44,0.561-2.44,1.561-3,3c6.143-1.143,4.724,5.275,5,10
	c4.583-0.916,4.572,2.761,6,5c-11.181,11.065-8.427,27.036-12,42c0.872-2.559-4.272-6.282-2-4c-0.276,1.753,2.815,4.99,0,6
	c-1.393-1.273-0.435-4.898-3-5c0.999,2.595,1.758,6.697-1,8c-0.553-1.78-0.514-4.152-2-5c-0.575,1.758,1.209,5.875-1,6
	c-2.716,0.715,0.715-4.715-2-4c0.917,4.25-2.396,4.271-6,4c0.279-2.918-0.241-3.438-2-2c-0.052-1.834,5.125-3.387,2-5
	c-0.211,1.122-1.109,1.557-2,2c2.859-3.461-1.538-3.219-4-2c-0.306-2.307,2.889-1.111,3-3c-9.957,1.326,0.858,7.508-3,10
	c7.855,6.655,17.538,2.006,24-3c3.028,10.791-1.791,27.394-1,32c1.504-2.163,1.113-6.22,4-7c-1.674,6.993-3.323,14.01-7,19
	c-4.337-3.284-10.688,5.26-7,10c1.348-2.986,4.249-4.417,8-5c-2.002,1.997-2.921,5.079-6,6c-0.102-1.122,1.453-1.557,0-2
	c-4.315,2.018-7.137,5.529-8,11c2.483-0.15,4.15,0.517,5,2c-0.631,2.384-0.61,4.408-3,7c5.06,0.505-1.469,2.845-1,5
	c1.496,1.171,4.09,1.243,5,3c-3.998,3.412-3.868,6.076-7,9c2.416-2.521-1.562-1.771-2-1c1.641-0.164,1.641,6.164,0,6
	c-1.151-1.182-1.132-3.535-1-6c-3.045,0.289-6.826-0.159-7,3c4.597-2.502,5.167,3.838,7,7c-2.88-0.12-1.735-4.265-5-4
	c1.903,2.773-1.454,8.009,2,4c-7.004,11.437-8.957,29.22-15,44c-0.156-1.177,0.172-2.839-1-3c-0.39,1.427-1.2,1.687,0,3
	c-8.896-1.94-13.741,15.144-10,23c-4.672,3.994-6.027,11.306-7,19c0.4,2.6,2.984,3.016,3,6c-1.625,4.238-2.756,5.094-3,9
	c4.745,3.538,8.684-2.899,13,3c1.424-4.531,8.793,0.802,12,1c8.033-7.933,15.905-15.371,9-29c8.341-11.306-2.708-36.036,12-43
	c4.858-8.142,6.168-19.832,16-23c3.881,21.6,5.228,40.45,20,50c-0.775,0.224-1.973,0.027-2,1c1.809,2.252,5.05,2.355,8,1
	c0.826,2.507,3.503,3.163,5,5c2.802-0.532,5.198-1.468,8-2c12.135,10.556,37.128,13.506,43,27c5.431-1.569,8.999-5.001,9-12
	c-17.047-8.953-28.418-23.582-47-31c-0.772,2.562-0.998,5.669-3,7c-1.578-1.755-4.592-2.075-5-5c1.553,0.229,4.666,3.845,6,1
	c-3.469,0.47-0.573-5.427-3-6c-0.485,1.78-1.066-0.434-2-1c-0.485,1.182-1.066,2.267-2,3c0.003-1.003-0.811-1.19-1-2
	c1.668-1.666,4.812-1.854,6-4c-6.127,0.55,1.173-2.545,0-6c-8.162-0.981,0.955-12.219-6-10c-1.334-26.001,15.66-44.965,11-70
	c7.096,0.901,18.409,7.135,25,2c-6.356-2.989-12.551-11.704-6-12c-0.099-3.568-0.467-6.866-3-8c-0.113,1.22-0.299,2.367-2,2
	c-0.312-5.423,4.669-18.1,10-24c-4.767-0.233-7.213-2.787-10-5c3.493,0.217,8.621,3.987,11,2c-5.036-2.516-0.862-2.846,1-3
	c-2.506-2.16-6.179-3.154-8-6c0.694,0.783,5.58,2.226,6,0c-1.778-2.555-9.33,0.664-11-2c4.58-0.42,11.288,1.287,13-2
	c-4.408,0.075-8.596-0.071-10-3c5.141-1.431,8.519,4.09,12,1c-4.233-1.322-9.478-0.879-3-3c-5.271,0.275-10.995-0.91-13-1
	c1.496-1.171,4.09-1.243,5-3c-1.494-1.506-5.701-0.299-5-4c2.705-0.962,5.716-1.617,8-3c-4.753-1.133-6.952-4.113-9-3
	c2.442-4.134-3.442-5.866-1-10c-1.377-0.043-2.195,0.471-3,1c2.378-2.878-1.556-5.849-2-9c-0.224,0.775-0.027,1.973-1,2
	c0.16-3.797,0.035-6.338-2-3c0.581-3.914-0.86-5.807-2-8c0.926-6.414-1.245,3.1-1,8c0.222,4.436,3.874,8.514,1,10
	c-2.48-8.276-3.831-16.094-1-25c-5.117,0.883-2.939,9.061-6,12c-0.491-4.49,0.507-7.493,1-11c-4.121-0.788-1.879,4.788-6,4
	c-0.075-1.742,0.224-3.109,1-4c-3.72-0.387-1.851,4.816-5,5c1.596-3.68-3.955-8.328-2-6c1.707,4.209,0.31,10.82-1,15
	c-0.898-11.102-3.545-20.455-10-26c0.922,7.091,2.18,19.137,0,26c-0.955-3.712,0.146-9.479-3-11c0.327,4.885,2.971,13.938-1,17
	c-0.336-3.412,1.142-13.299-2-8c1.51-10.418,0.635-18.567-1-27c3.379-2.287,8.282-3.052,10-7c-3.296-1.726-3.484,0.705-4-2
	C572.063,36.791,568.491,35.636,572,33.771z M531,101.771c-5.658-5.61-0.737-9.788-5-16c0.506,7.842-4.004,12.821,2,19
	C528.111,102.883,531.306,104.078,531,101.771z M132,45.771c3.729-1.701,1.583,0.591,5,1c1.958-1.869,0.309-3.662,0-6
	C133.438,40.543,131.771,42.209,132,45.771z M291,48.771c0.485,5.312,0.737,9.053-2,4c-0.828,4.306,3.562,10.124-1,12
	c-1.665-0.116-0.335-8.176-2-5c-0.317,4.017-0.698,7.968-3,10c0.159-3.16,0.035-6.035-2-7c-1.716,2.555,1.146,3.5-1,5
	c-2.767-3.162,2.384-6.84,0-9c-0.485,1.78-1.066-0.434-2-1c1.226,4.775-1.065,8.908,2,13c-2.46-1.207-3.321-4.012-5-6
	c-0.739,7.145-2.711,12.166-2,17c1.171-1.496,1.243-4.09,3-5c-5.266,11.885-2.122,21.816-5,36c-1.855-17.992-6.973-26.914-2-44
	c-2.314-2.534-3.383-2.512-2-7c-1.862,0.956-3.342-2.995-4,0c3.652,3.823-4.112-0.123-4,2c1.212-0.307,3.448,2.889,1,3
	c-1.907-0.426-1.81-2.857-5-2c0.174,6.492,1.979,11.354,3,17c-1.376,0.043-2.196-0.471-3-1c-1.021,4.264,4.021,10.896,0,10
	c-0.164,3.164,2.658,3.342,2,7c1.78,0.553,4.153,0.514,5,2c-3.408,4.781,0.933,10.371,3,13c-4.341,1.992-5.438,7.229-6,13
	c8.022,8.471,21.106,5.565,30,0c-0.854,18.356-3.68,44.025,2,63c6.634-3.7,11.624-9.043,17-14c3.094,1.934,10.784,4.513,14,3
	c-5.259-2.03-11.562-5.069-13-8c10.067-0.938,15.224,12.837,29,8c2.449-1.329-1.1-3.721,1-4c1.576,0.091,0.783,2.551,3,2
	c-0.388-6.181,20.763-8.865,25-2c-1.721-0.054-2.563,0.77-3,2c1.987,0.013,1.271,2.729,4,2c3.538-7.593-1.683-17.563-1-22
	c5.59,0.744,3.338,9.329,8,11c-1.188-9.208-2.222-16.776-8-23c-1.186-7.899,0.967-12.084-4-18c1.588-13.155,3.166-24.61,2-36
	c6.413,3.541,12.156,1.416,17,4c11.853,6.324,8.1,25.654,15,37c0.268-14.451-5.483-24.131-7-34c3.663-2.975,2.564-5.211,6-9
	c-0.319-3.314-3.095,3.9-4,0c0.279-1.502,4.3-4.211,2-5c-0.847,1.486-3.22,1.447-5,2c1.867-1.778-0.812-2.541,0-6
	c-5.039-0.137,1.469,5.066-3,5c0.868-3.868-1.673-4.327-3-6c0.302,4.086-1.385-0.169-4,1c0.091-2.729-1.666-2.013,0-4
	c-3.72,1.69-1.961-0.213-4-2c-0.138,1.862-0.658,3.342-2,4c-7.091-3.106-15.467-9.473-21-17c-7.455,1.212-7.965,9.369-13,13
	c-0.171-1.496,0.357-3.69-1-4c-1.838,3.152-2.759-1.008-7,2c0.3-1.178,5.295-2.51,2-4c-1.389,3.887-6.521,3.186-9,2
	c1.329-1.004,3.722-0.945,4-3c-6.832-0.949-12.525-2.617-17-8c1.301,2.483-2.935,4.15,0,5c0.224-0.775,0.028-1.973,1-2
	c-1.979,3.76,0.64,6.804,3,9c-4.679-0.654-5.358-5.309-8-8c-0.144,4.572-5.208,0.23-8,5c1.344-1.462,2.044-7.92-1-8
	c-1.175,2.651,1.917,5.889,0,6C294.524,59.173,299.292,48.375,291,48.771z M309,54.771c2.458-2.576-1.069-4.807-3-6
	C306.445,51.326,307.402,53.369,309,54.771z M521,61.771c0.207,3.459,2.012,5.322,3,8c1.334-2.844,4.447,0.771,6,1
	c5.435-4.566,9.737-10.264,18-12c-0.041-5.238-7.592-1.425-9-3c-2.707,1.964,3.51,4.998-1,6c0.253-3.586-3.003-3.664-3-7
	c4.318-0.379,11.213-3.413,10-6C533.98,50.945,525.659,51.982,521,61.771z M298,55.771c1.182,0.484,2.267,1.066,3,2
	c0.224,0.775,0.028,1.973,1,2c-0.708-3.709,1.708-4.291,1-8c-3.759-2.875-2.323,1.055-5-2C298,51.771,298,53.771,298,55.771z
	 M131,52.771c-1.869-0.798-3.663-1.671-6-2C124.396,54.309,130.181,56.561,131,52.771z M526,83.771c0.059-4.393-0.402-8.265-2-11
	C524.235,76.869,524.49,80.948,526,83.771z M619,98.771c1.778-2.555,9.33,0.664,11-2C626.736,94.498,617.729,96.885,619,98.771z
	 M229,138.771c-1.136-2.197-3.344-3.322-4-6c-1.78,0.553-4.153,0.514-5,2C225.597,132.579,229.623,141.257,229,138.771z
	 M405,155.771c-2.333-0.294-2.333-2.706,0-3c-0.054,1.721,0.77,2.563,2,3c1.906-3.094,2.664-7.336,7-8
	c-2.304-4.696-5.775-8.225-7-14c-4.359,0.764-9.263-1.237-11,0C396.151,143.354,399.148,158.251,405,155.771z M322,188.771
	c-0.857-3.19,1.573-3.093,2-5c-4.568-0.79-9.757-6.21-14-4C312.485,184.286,317.441,186.33,322,188.771z M335,206.771
	c-0.389,0.024-4.712,1.876-6,0c1.758-3.242,5.508-4.492,8-7c-6.406-1.293-10.104,3.286-12,1c2.189-4.811,9.149-4.851,10-11
	c-6.404,2.686-7.472,3.183-15,1c-2.105,9.146-12.306-1.271-17,2c5.845,2.489,9.845,6.822,15,10c-6.862-0.367-10.861-3.177-16-1
	c2.468,3.592,16.296,7.084,8,12c4.038-1.371,3.54,1.793,5,3c0.157-1.177-0.172-2.839,1-3c1.595,1.503-0.028,4.211-2,5
	c-1.321-0.012-0.914-1.753-2-2c-0.892,1.521-5.626,4.269-3,6c1.5-1.167,2.445-2.889,5-3c-3.104,6.529-6.8,12.093-5,17
	c0.445-2.555,1.402-4.598,3-6c-3.839,6.494-4.661,16.005-11,20c1.446,3.457-1.116,4.713,1,7c-0.056-5.436,10.888-10.023,5-12
	c2.677-1.323,1.694-6.306,4-8c8.524-3.542,11.484-21.134,20-28c0.156,1.177-0.172,2.839,1,3
	C331.098,209.457,337.556,208.434,335,206.771z M347,199.771c2.031-1.07,9.449-2.569,12-2
	C352.116,190.746,339.735,203.601,347,199.771z M333,204.771c3.433,1.021,8.248-1.646,6-3
	C338.096,203.867,333.355,202.127,333,204.771z M508,250.771c3.965,0.066,5.146-7.953,2-9c4.2-2.152,8.283-9.691,6-15
	C512.98,234.419,508.218,240.323,508,250.771z M358,247.771c1.705,0.41-0.21,1.289,0,3C363.315,251.374,361.697,244.164,358,247.771
	z M369,243.771c-4.154-0.487-5.499,1.834-8,3C363.885,249.156,366.935,245.302,369,243.771z M348,255.771
	c6.003,3.895,13.456,2.792,20,0C364.58,251.059,349.987,248.64,348,255.771z M282,252.771c-2.351,4.334-5.927,12.717-5,17
	c1.171-1.496,1.243-4.09,3-5c3.368,0.708,7.156,6.843,9,3c1.169,2.615-3.085,4.302,1,4C294.675,263.355,285.796,258.508,282,252.771
	z M298,278.771c2.253-4.048-0.122-10.877-5-11c1.911,3.701-0.63,2.494-3,4C290.341,276.43,295.679,276.092,298,278.771z
	 M388,259.771c-5.757-5.98-10.052-4.066-14,3c3.034-0.367,2.076,3.258,3,5c-1,0-2,0-3,0c-0.091-2.729,1.666-2.013,0-4
	c-2.391,0.609-7.255-1.255-8,1c1.796-0.129,2.34,0.993,2,3c4.618,0.792,2.859-1.111,4-2c-0.003,1.003,0.81,1.19,1,2
	c-1.81,3.432-5.119,0.847-2,5c-1.834,3.144-3.386-3.363-5,0c4.02,0.954,3.372,5.937,0,7c2.059,0.274,0.941,3.726,3,4
	c11.043-3.29,19.955-8.711,26-17C390.081,265.445,384.241,261.455,388,259.771z M364,264.771c-1.876-1.124-2.124-3.876-4-5
	c-1.75,2.491-8.867-1.181-11,0c1.578,1.755,4.592,2.075,5,5C358.223,262.676,361.594,266.984,364,264.771z M403,276.771
	c1.496-0.171,3.69,0.357,4-1c-1.907-0.505-3.792-6.102-6-3C402.85,272.922,401.614,276.158,403,276.771z M271,281.771
	c0.905-1.762,3.681-1.652,4-4c-0.776-0.224-1.973-0.027-2-1c1.122-0.212,1.557-1.109,2-2
	C270.785,273.614,271.101,282.128,271,281.771z M407,295.771c0.138,1.862,0.658,3.342,2,4c0-0.667,0-1.333,0-2
	c0.556,0.003,1.135-0.81,0-1c-2.201,1.064,1.075-5.625-2-7c3.107,2.611,7.383-2.66,6-4c-0.905,0.572-3.681,4.124-4,2
	c1.96,0.483,3.221-4.585,1-5c0.054,1.87-0.77,2.117-2,1c-0.395,1.721,1.484,2.563,0,3c-2.178-6.188-8.822-0.728-11-4
	c-2.213,1.44,1.259,2.44-1,3c0.716-2.716-4.716,0.716-4-2c1.009-0.012,1.258-1.753,0-2c-2.437,2.124,1.115-1.428,2-2
	c-2.182,0.182-3.182-0.818-3-3c-7.575,1.759-12.266,6.4-19,9c0.003-0.556-0.81-1.135-1,0
	C382.38,289.381,392.875,301.173,407,295.771z M267,286.771c2.911,2.831,8.821,2.125,12,0c0.154-2.487-1.571-3.096-2-5
	C271.317,281.089,271.023,285.795,267,286.771z M275,293.771c-2.091-0.576-2.854-2.479-6-2
	C268.305,294.562,273.976,296.002,275,293.771z M271,296.771c-0.783,4.449,1.332,6.002,1,10c1.163,1.837,6.526-0.526,5,4
	c7.829-0.301,7.603-3.492,15-3c0.729-2.729-1.987-2.013-2-4c3.548,3.055,4.739-8.886,3-11c0.149,2.483-0.517,4.15-2,5
	c-0.157-1.177,0.172-2.839-1-3c-0.691,4.583-0.144,4.229-3,1C282.382,303.191,281.703,295.969,271,296.771z M392,306.771
	c1.124-1.876,3.876-2.124,5-4C393.548,301.731,389.411,305.076,392,306.771z M413,320.771c-0.012,1.321-1.753,0.914-2,2
	c8.252,9.753,16.812-12.534,13-18C426.059,314.716,414.145,326.746,413,320.771z M270,310.771
	C264.742,306.188,260.973,312.09,270,310.771L270,310.771z M407,310.771c2.11,2.557,1.562,7.771,4,10c1.241-4.093,3.734-6.932,5-11
	c-1.377,0.043-2.196-0.471-3-1C414.271,313.293,407.929,306.99,407,310.771z M278,318.771c-4.544,0.123-7.5,1.834-9,5
	c8.401,4.685,12.949-2.726,13-12C278.632,311.378,282.625,318.273,278,318.771z M670,320.771c-3.289,0.016-8.548-4.272-10,0
	c0.779,0.221,1.163,0.838,1,2C664.162,320.811,667.839,321.586,670,320.771z M28,324.771c1.381,1.887,11.674-4.155,9-3
	C33.39,323.296,29.208,319.789,28,324.771z M656,329.771c3.695-0.638,9.962,1.295,12-1c-3.542-0.111,2.125-3.306-1-3
	C666.334,327.395,656.3,324.835,656,329.771z M501,328.771c0.716,2.716-4.716-0.716-4,2
	C512.001,331.344,512.663,329.759,501,328.771z M29,334.771c3.834-0.182,0.363,0.818,1,3c2.072-0.595,6.569,1.236,7-1
	c-1.586-1.338-5.684-2.332-3-5C31.667,332.105,29.691,332.797,29,334.771z"/>
<path fill-rule="evenodd" clip-rule="evenodd" d="M561,35.771c-2.604-1.595-4.483-3.91-6-4c-0.761,1.572-3.173,1.494-3,4
	c-2.152-0.848-3.537-2.463-3-6c2.503,0.17,3.131-1.536,4-3c1.85,0.15,0.614,3.387,2,4c0.89-0.777,2.258-1.075,4-1
	c0.091-2.729-1.666-2.013,0-4c9.399,2.924,1.776,17.435-6,13C555.965,37.551,557.926,38.376,561,35.771z"/>
<path fill-rule="evenodd" clip-rule="evenodd" d="M573,33.771c0.516,2.705,0.704,0.274,4,2c-1.718,3.948-6.621,4.713-10,7
	c1.635,8.433,2.51,16.582,1,27c3.142-5.299,1.664,4.588,2,8c3.971-3.062,1.327-12.115,1-17c3.146,1.521,2.045,7.288,3,11
	c2.18-6.863,0.922-18.909,0-26c6.455,5.545,9.102,14.898,10,26c1.31-4.18,2.707-10.791,1-15c-1.955-2.328,3.596,2.32,2,6
	c3.149-0.184,1.28-5.387,5-5c-0.776,0.891-1.075,2.258-1,4c4.121,0.788,1.879-4.788,6-4c-0.493,3.507-1.491,6.51-1,11
	c3.061-2.939,0.883-11.117,6-12c-2.831,8.906-1.48,16.724,1,25c2.874-1.486-0.778-5.564-1-10c-0.245-4.9,1.926-14.414,1-8
	c1.14,2.193,2.581,4.086,2,8c2.035-3.338,2.16-0.797,2,3c0.973-0.027,0.776-1.225,1-2c0.444,3.151,4.378,6.122,2,9
	c0.805-0.529,1.623-1.043,3-1c-2.442,4.134,3.442,5.866,1,10c2.048-1.113,4.247,1.867,9,3c-2.284,1.383-5.295,2.038-8,3
	c-0.701,3.701,3.506,2.494,5,4c-0.91,1.757-3.504,1.829-5,3c2.005,0.09,7.729,1.275,13,1c-6.478,2.121-1.233,1.678,3,3
	c-3.481,3.09-6.859-2.431-12-1c1.404,2.929,5.592,3.075,10,3c-1.712,3.287-8.42,1.58-13,2c1.67,2.664,9.222-0.555,11,2
	c-0.42,2.226-5.306,0.783-6,0c1.821,2.846,5.494,3.84,8,6c-1.862,0.154-6.036,0.484-1,3c-2.379,1.987-7.507-1.783-11-2
	c2.787,2.213,5.233,4.767,10,5c-5.331,5.9-10.312,18.577-10,24c1.701,0.367,1.887-0.78,2-2c2.533,1.134,2.901,4.432,3,8
	c-6.551,0.296-0.356,9.011,6,12c-6.591,5.135-17.904-1.099-25-2c4.66,25.035-12.334,43.999-11,70c6.955-2.219-2.162,9.019,6,10
	c1.173,3.455-6.127,6.55,0,6c-1.188,2.146-4.332,2.334-6,4c0.189,0.81,1.003,0.997,1,2c0.934-0.733,1.515-1.818,2-3
	c0.934,0.566,1.515,2.78,2,1c2.427,0.573-0.469,6.47,3,6c-1.334,2.845-4.447-0.771-6-1c0.408,2.925,3.422,3.245,5,5
	c2.002-1.331,2.228-4.438,3-7c18.582,7.418,29.953,22.047,47,31c-0.001,6.999-3.569,10.431-9,12c-5.872-13.494-30.865-16.444-43-27
	c-2.802,0.532-5.198,1.468-8,2c-1.497-1.837-4.174-2.493-5-5c-2.95,1.355-6.191,1.252-8-1c0.027-0.973,1.225-0.776,2-1
	c-14.772-9.55-16.119-28.4-20-50c-9.832,3.168-11.142,14.858-16,23c-14.708,6.964-3.659,31.694-12,43
	c6.905,13.629-0.967,21.067-9,29c-3.207-0.198-10.576-5.531-12-1c-4.316-5.899-8.255,0.538-13-3c0.244-3.906,1.375-4.762,3-9
	c-0.016-2.984-2.6-3.4-3-6c0.973-7.694,2.328-15.006,7-19c-3.741-7.856,1.104-24.94,10-23c-1.2-1.313-0.39-1.573,0-3
	c1.172,0.161,0.844,1.823,1,3c6.043-14.78,7.996-32.563,15-44c-3.454,4.009-0.097-1.227-2-4c3.265-0.265,2.12,3.88,5,4
	c-1.833-3.162-2.403-9.502-7-7c0.174-3.159,3.955-2.711,7-3c-0.132,2.465-0.151,4.818,1,6c1.641,0.164,1.641-6.164,0-6
	c0.438-0.771,4.416-1.521,2,1c3.132-2.924,3.002-5.588,7-9c-0.91-1.757-3.504-1.829-5-3c-0.469-2.155,6.06-4.495,1-5
	c2.39-2.592,2.369-4.616,3-7c-0.85-1.483-2.517-2.15-5-2c0.863-5.471,3.685-8.982,8-11c1.453,0.443-0.102,0.878,0,2
	c3.079-0.921,3.998-4.003,6-6c-3.751,0.583-6.652,2.014-8,5c-3.688-4.74,2.663-13.284,7-10c3.677-4.99,5.326-12.007,7-19
	c-2.887,0.78-2.496,4.837-4,7c-0.791-4.606,4.028-21.209,1-32c-6.462,5.006-16.145,9.655-24,3c3.858-2.492-6.957-8.674,3-10
	c-0.111,1.889-3.306,0.693-3,3c2.462-1.219,6.859-1.461,4,2c0.891-0.443,1.789-0.878,2-2c3.125,1.613-2.052,3.166-2,5
	c1.759-1.438,2.279-0.918,2,2c3.604,0.271,6.917,0.25,6-4c2.715-0.715-0.716,4.715,2,4c2.209-0.125,0.425-4.242,1-6
	c1.486,0.848,1.447,3.22,2,5c2.758-1.303,1.999-5.405,1-8c2.565,0.102,1.607,3.727,3,5c2.815-1.01-0.276-4.247,0-6
	c-2.272-2.282,2.872,1.441,2,4c3.573-14.964,0.819-30.935,12-42c-1.428-2.239-1.417-5.916-6-5c-0.276-4.725,1.143-11.143-5-10
	c0.56-1.439,1.56-2.439,3-3c-0.749-1.889-2.984-0.693-1-3c-0.294-2.379-2.706,1.111-3,2c-2.579-0.086,4.346-7.204,4-2
	c0.473-5.445,9.136-8.879,16-11C568.491,35.636,572.063,36.791,573,33.771z M518,273.771c-1.229-5.104-8.098-4.569-9-10
	c1.427-0.239,1.687-1.646,3-2c1.239,4.969,6.998-6.69,9,1c1.225-5.456,0.214-8.801-4-11c-1.204,5.463-7.646,5.688-12,8
	C507.425,265.691,512.831,273.925,518,273.771z M560,90.771c3.758-0.773,3.933-5.152,6,0c-2.236-4.878,5.439-9.266,2-17
	c-1.424,2.576-2.343,5.658-6,6c-1.004-1.329-0.945-3.721-3-4c-3.924,16.54-5.059,36.348-2,55c4.826-12.848-4.967-37.215,5-43
	C560.594,88.032,560.86,89.965,560,90.771z M577,107.771c1.985-4.682,2.217-11.116,7-13c-0.161,5.859-5.934,11.373-4,16
	c4.343-8.99,7.861-18.806,9-31c3.521,5.812,2.34,16.327,9,19c-0.305-10.244-0.488-20.777-9-25
	C582.94,82.383,577.713,97.145,577,107.771z M605,113.771c3.23-14.118-0.408-30.021-9-40
	C599.317,86.787,601.663,100.775,605,113.771z M572,94.771c1.314-2.686,6.005-1.995,6-6c-2.333,0-4.667,0-7,0
	C570.296,91.266,570.016,92.881,572,94.771z M560,95.771c2.511,2.217,5.508-1.143,7-3C563.442,92.547,561.008,93.445,560,95.771z
	 M587,121.771c5.548-2.49,7.312,3.945,9,2c-4.585-6.748,1.058-23.725-5-29C589.803,103.908,586.752,111.19,587,121.771z
	 M612,115.771c1.155-1.885,1.102-9.244-2-10C610.143,109.629,609.219,114.553,612,115.771z M593,137.771
	c-1.161-0.839-2.681-1.319-5-1c-0.329,7.537-11.455,12.023-17,15c1.108-1.892,1.275-4.725,2-7c-6.137-2.006-5.771,6.25-10,3
	c3.508-4.787,11.895-7.13,8-14c-1.926,7.849-13.779,10.74-9,22c6.054-3.946,14.135,1.787,21-1c-2.091-2.18-2.854,0.5-6,0
	c0.299-1.966-1.351-1.983-2-3C583.45,149.555,589.302,144.74,593,137.771z M586,149.771c3.146,0.479,3.909-1.424,6-2
	c0.054-1.721-0.77-2.563-2-3C588.438,146.209,586.52,147.291,586,149.771z M556,158.771c1.184-2.462,3.777,2.048,5-1
	c-3.834,0.182-0.362-0.818-1-3C556.954,153.809,554.544,161.598,556,158.771z M582,163.771c3.049-0.009,6.54-4.717,5-6
	C585.211,159.648,583.429,161.534,582,163.771z M585,166.771c2.93-0.07,5.638-0.362,5-4
	C587.564,163.336,584.856,163.628,585,166.771z M555,187.771c0.015-6.652,4.496-8.838,6-14
	C555.958,174.75,553.205,183.282,555,187.771z M574,184.771c-2.927,0.515-4.915-4.979-7-2
	C568.768,183.417,571.962,187.703,574,184.771z M585,184.771c2.786-0.374,6.085,3.809,8,1c-2.555-0.445-4.598-1.402-6-3
	c0.61-0.057,1.184-0.149,1-1c-0.667,0-1.333,0-2,0c-0.61,0.057-1.184,0.149-1,1C586.209,182.983,585.615,183.881,585,184.771z
	 M574,189.771c-1.643-1.091-7.149-3.428-9-1C567.442,188.902,576.438,191.204,574,189.771z M563,192.771
	c-6.454,4.95-8.59,23.006,0,27c0.877-3.21-2.594-2.073-3-4c4.178-0.19-2.798-5.281,3-6c0.473-3.14-2.691-2.642-3-5
	c3.647-0.686,8.885,0.218,9-4c-6.898,1.958-6.049-5.904-9,0C560.057,197.161,562.493,195.931,563,192.771z M577,198.771
	c-4.803,0.106-8.381-6.246-13-3C567.916,196.553,573.505,200.893,577,198.771z M566,216.771c3.023-0.311,7.777,1.11,8-2
	c-4.128-0.872-8.203-1.797-12-3C561.34,215.556,569.396,213.258,566,216.771z M575,226.771c-2.052-1.948-2.443-5.557-6-6
	C569.309,223.846,572.621,229.084,575,226.771z M586,233.771c-4.013-1.987-8.597-3.403-10-8
	C575.703,231.426,582.859,234.879,586,233.771z"/>
<path fill-rule="evenodd" clip-rule="evenodd" d="M298,64.771c1.917-0.111-1.175-3.349,0-6c3.044,0.08,2.344,6.538,1,8
	c2.792-4.77,7.856-0.428,8-5c2.642,2.691,3.321,7.346,8,8c-2.36-2.196-4.979-5.24-3-9c-0.972,0.027-0.776,1.225-1,2
	c-2.935-0.85,1.301-2.517,0-5c4.475,5.383,10.168,7.051,17,8c-0.278,2.055-2.671,1.996-4,3c2.479,1.186,7.611,1.887,9-2
	c3.295,1.49-1.7,2.822-2,4c4.241-3.008,5.162,1.152,7-2c1.357,0.31,0.829,2.504,1,4c5.035-3.631,5.545-11.788,13-13
	c5.533,7.527,13.909,13.894,21,17c1.342-0.658,1.862-2.138,2-4c2.039,1.787,0.28,3.69,4,2c-1.666,1.987,0.091,1.271,0,4
	c2.615-1.169,4.302,3.086,4-1c1.327,1.673,3.868,2.132,3,6c4.469,0.066-2.039-5.137,3-5c-0.812,3.459,1.867,4.222,0,6
	c1.78-0.553,4.153-0.514,5-2c2.3,0.789-1.721,3.498-2,5c0.905,3.9,3.681-3.314,4,0c-3.436,3.789-2.337,6.025-6,9
	c1.517,9.869,7.268,19.549,7,34c-6.9-11.346-3.147-30.676-15-37c-4.844-2.584-10.587-0.459-17-4c1.166,11.39-0.412,22.845-2,36
	c4.967,5.916,2.814,10.101,4,18c5.778,6.224,6.812,13.792,8,23c-4.662-1.671-2.41-10.256-8-11c-0.683,4.437,4.538,14.407,1,22
	c-2.729,0.729-2.013-1.987-4-2c0.437-1.23,1.279-2.054,3-2c-4.237-6.865-25.388-4.181-25,2c-2.217,0.551-1.424-1.909-3-2
	c-2.1,0.279,1.449,2.671-1,4c-13.776,4.837-18.933-8.938-29-8c1.438,2.931,7.741,5.97,13,8c-3.216,1.513-10.906-1.066-14-3
	c-5.376,4.957-10.366,10.3-17,14c-5.68-18.975-2.854-44.644-2-63c-8.894,5.565-21.978,8.471-30,0c0.562-5.771,1.659-11.008,6-13
	c-2.067-2.629-6.408-8.219-3-13c-0.847-1.486-3.22-1.447-5-2c0.658-3.658-2.164-3.836-2-7c4.021,0.896-1.021-5.736,0-10
	c0.804,0.529,1.624,1.043,3,1c-1.021-5.646-2.826-10.508-3-17c3.19-0.857,3.093,1.574,5,2c2.448-0.111,0.212-3.307-1-3
	c-0.112-2.123,7.652,1.823,4-2c0.658-2.995,2.138,0.956,4,0c-1.383,4.488-0.314,4.466,2,7c-4.973,17.086,0.145,26.008,2,44
	c2.878-14.184-0.266-24.115,5-36c-1.757,0.91-1.829,3.504-3,5c-0.711-4.834,1.261-9.855,2-17c1.679,1.988,2.54,4.793,5,6
	c-3.065-4.092-0.774-8.225-2-13c0.934,0.566,1.515,2.78,2,1c2.384,2.16-2.767,5.838,0,9c2.146-1.5-0.716-2.445,1-5
	c2.035,0.965,2.159,3.84,2,7c2.302-2.032,2.683-5.983,3-10c1.665-3.176,0.335,4.884,2,5c4.562-1.876,0.172-7.694,1-12
	c2.737,5.053,2.485,1.312,2-4C299.292,48.375,294.524,59.173,298,64.771z M338,75.771c-0.141,6.192-0.459,12.207-2,17
	c0.409-2.409-1.826-2.174-1-5c-7.89,3.777-10.219,13.115-20,15c-1.181,9.848,3.677,13.656,5,21c4.028,0.318,5.631-6.978,8-5
	c-2.053,6.537,3.302,15.245,3,24c2.409,0.409,2.174-1.826,5-1c0.773,6.659-1.816,9.249-6,6c-1.904,12.266,11.054,7.319,14,3
	c1.264,4.102,4.283,7.186,5,7c-1.609-0.314,0.076-1.424,2-1c-1.422-6.578-3.854-12.146-8-16c2.698-10.623-2.237-22.158-4-29
	c1.496-1.171,4.09-1.243,5-3c-4.675-6.863-6.338-15.895-4-26c1.606,2.762,0.505,13.449,4,11c-4.65-5.027,0.36-21.066-2-23
	C341.099,73.499,341.031,80.964,338,75.771z M276,107.771c0.168,2.263-4.809,4.397-2,6C274.511,111.35,280.548,109.35,276,107.771z
	 M293,69.771c-0.647-4.686,1.308-11.975-1-15C290.243,58.322,290.345,67.426,293,69.771z M352,78.771c-0.306-2.307,2.889-1.111,3-3
	c-2.935-0.398-3.386-3.281-6-4C349.926,74.18,350.824,76.613,352,78.771z M355,82.771c4.078-5.412,3.159,5.23,7,2
	c-3.255-1.412-1.684-7.65-5-9C357.101,78.872,355.777,80.549,355,82.771z M285,105.771c-0.994-2.006-1.951-4.049-3-6
	C280.11,102.595,281.081,109.156,285,105.771z M286,105.771c3.034,0.367,2.075-3.258,3-5
	C285.876,100.314,285.804,102.908,286,105.771z M350,106.771c-0.793,3.297,5.788-0.893,8-1c-3.64,0.216-7.953-7.637-9-1
	c2.503-0.125,3.131-1.908,4,1C351.722,105.826,351.615,107.053,350,106.771z M350,127.771c1.765,6.235,5.864,10.136,10,14
	c-0.439-5.561-5.557-6.443-5-13c2.092,2.184,3.049-1.189,3-4c-3.962,1.55-6.111-3.782-8-1
	C352.021,125.015,352.887,132.548,350,127.771z M319,168.771c0.056-3.61,2.493-4.841,3-8c-1.496,0.02-4.091-3.715-5-1
	C324.098,161.552,313.588,165.306,319,168.771z M345,162.771c4.812-2.684,8.971,0.189,14-2
	C355.233,158.12,348.244,159.57,345,162.771z M339,163.771c2.546,0.454-1.016,7.016,4,5c-0.485-2.275-1.984-5.108,0-7
	C341.138,161.909,339.658,162.43,339,163.771z"/>
<path fill-rule="evenodd" clip-rule="evenodd" d="M342,70.771c2.36,1.934-2.65,17.973,2,23c-3.495,2.449-2.394-8.238-4-11
	c-2.338,10.105-0.675,19.137,4,26c-0.91,1.757-3.504,1.829-5,3c1.763,6.842,6.698,18.377,4,29c4.146,3.854,6.578,9.422,8,16
	c-1.924-0.424-3.609,0.686-2,1c-0.717,0.186-3.736-2.898-5-7c-2.946,4.319-15.904,9.266-14-3c4.184,3.249,6.773,0.659,6-6
	c-2.826-0.826-2.591,1.409-5,1c0.302-8.755-5.053-17.463-3-24c-2.369-1.978-3.972,5.318-8,5c-1.323-7.344-6.181-11.152-5-21
	c9.781-1.885,12.11-11.223,20-15c-0.826,2.826,1.409,2.591,1,5c1.541-4.793,1.859-10.808,2-17
	C341.031,80.964,341.099,73.499,342,70.771z M334,135.771c1.866-2.597-0.025-8.117-2-10
	C331.896,129.876,331.836,133.936,334,135.771z"/>
<path fill-rule="evenodd" clip-rule="evenodd" d="M545,48.771c1.213,2.587-5.682,5.621-10,6c-0.003,3.336,3.253,3.414,3,7
	c4.51-1.002-1.707-4.036,1-6c1.408,1.575,8.959-2.238,9,3c-8.263,1.736-12.565,7.434-18,12c-1.553-0.229-4.666-3.844-6-1
	c-0.988-2.678-2.793-4.541-3-8C525.659,51.982,533.98,50.945,545,48.771z"/>
<path fill-rule="evenodd" clip-rule="evenodd" d="M102,72.771c-2.3-0.789,1.721-3.498,2-5c2.6,1.395-0.73,5.176-1,7
	C100.626,78.457,104.374,69.086,102,72.771z"/>
<path fill-rule="evenodd" clip-rule="evenodd" d="M524,72.771c1.598,2.735,2.059,6.607,2,11
	C524.49,80.948,524.235,76.869,524,72.771z"/>
<path fill-rule="evenodd" clip-rule="evenodd" d="M589,73.771c8.512,4.223,8.695,14.756,9,25c-6.66-2.673-5.479-13.188-9-19
	c-1.139,12.194-4.657,22.01-9,31c-1.934-4.627,3.839-10.141,4-16c-4.783,1.884-5.015,8.318-7,13
	C577.713,97.145,582.94,82.383,589,73.771z"/>
<path fill-rule="evenodd" clip-rule="evenodd" d="M562,87.771c-9.967,5.785-0.174,30.152-5,43c-3.059-18.652-1.924-38.46,2-55
	c2.055,0.279,1.996,2.671,3,4c3.657-0.342,4.576-3.424,6-6c3.439,7.734-4.236,12.122-2,17c-2.067-5.152-2.242-0.773-6,0
	C560.86,89.965,560.594,88.032,562,87.771z"/>
<path fill-rule="evenodd" clip-rule="evenodd" d="M630,96.771c-1.67,2.664-9.222-0.555-11,2
	C617.729,96.885,626.736,94.498,630,96.771z"/>
<path fill-rule="evenodd" clip-rule="evenodd" d="M353,105.771c-0.869-2.908-1.497-1.125-4-1c1.047-6.637,5.36,1.216,9,1
	c-2.212,0.107-8.793,4.297-8,1C351.615,107.053,351.722,105.826,353,105.771z"/>
<path fill-rule="evenodd" clip-rule="evenodd" d="M220,134.771c0.847-1.486,3.22-1.447,5-2c0.656,2.678,2.864,3.803,4,6
	C229.623,141.257,225.597,132.579,220,134.771z"/>
<path fill-rule="evenodd" clip-rule="evenodd" d="M396,133.771c1.737-1.237,6.641,0.764,11,0c1.225,5.775,4.696,9.304,7,14
	c-4.336,0.664-5.094,4.906-7,8c-1.23-0.437-2.054-1.279-2-3c-2.333,0.294-2.333,2.706,0,3
	C399.148,158.251,396.151,143.354,396,133.771z"/>
<path fill-rule="evenodd" clip-rule="evenodd" d="M560,154.771c0.638,2.182-2.834,3.182,1,3c-1.223,3.048-3.816-1.462-5,1
	C554.544,161.598,556.954,153.809,560,154.771z"/>
<path fill-rule="evenodd" clip-rule="evenodd" d="M587,157.771c1.54,1.283-1.951,5.991-5,6
	C583.429,161.534,585.211,159.648,587,157.771z"/>
<path fill-rule="evenodd" clip-rule="evenodd" d="M359,160.771c-5.029,2.189-9.188-0.684-14,2
	C348.244,159.57,355.233,158.12,359,160.771z"/>
<path fill-rule="evenodd" clip-rule="evenodd" d="M565,188.771c1.851-2.428,7.357-0.091,9,1
	C576.438,191.204,567.442,188.902,565,188.771z"/>
<path fill-rule="evenodd" clip-rule="evenodd" d="M332,212.771c-1.172-0.161-0.844-1.823-1-3c-8.516,6.866-11.476,24.458-20,28
	c-2.306,1.694-1.323,6.677-4,8c5.888,1.977-5.056,6.564-5,12c-2.116-2.287,0.446-3.543-1-7c6.339-3.995,7.161-13.506,11-20
	c-1.598,1.402-2.555,3.445-3,6c-1.8-4.907,1.896-10.471,5-17c-2.555,0.111-3.5,1.833-5,3c-2.626-1.731,2.108-4.479,3-6
	c1.086,0.247,0.679,1.988,2,2c1.972-0.789,3.595-3.497,2-5c-1.172,0.161-0.843,1.823-1,3c-1.46-1.207-0.962-4.371-5-3
	c8.296-4.916-5.532-8.408-8-12c5.139-2.177,9.138,0.633,16,1c-5.155-3.178-9.155-7.511-15-10c4.694-3.271,14.895,7.146,17-2
	c7.528,2.183,8.596,1.686,15-1c-0.851,6.149-7.811,6.189-10,11c1.896,2.286,5.594-2.293,12-1c-2.492,2.508-6.242,3.758-8,7
	c1.288,1.876,5.611,0.024,6,0C337.556,208.434,331.098,209.457,332,212.771z"/>
<path fill-rule="evenodd" clip-rule="evenodd" d="M560,200.771c2.951-5.904,2.102,1.958,9,0c-0.115,4.218-5.353,3.314-9,4
	c0.309,2.358,3.473,1.86,3,5c-5.798,0.719,1.178,5.81-3,6c0.406,1.927,3.877,0.79,3,4c-8.59-3.994-6.454-22.05,0-27
	C562.493,195.931,560.057,197.161,560,200.771z"/>
<path fill-rule="evenodd" clip-rule="evenodd" d="M564,195.771c4.619-3.246,8.197,3.106,13,3
	C573.505,200.893,567.916,196.553,564,195.771z"/>
<path fill-rule="evenodd" clip-rule="evenodd" d="M359,197.771c-2.551-0.569-9.969,0.93-12,2
	C339.735,203.601,352.116,190.746,359,197.771z"/>
<path fill-rule="evenodd" clip-rule="evenodd" d="M339,201.771c2.248,1.354-2.567,4.021-6,3
	C333.355,202.127,338.096,203.867,339,201.771z"/>
<path fill-rule="evenodd" clip-rule="evenodd" d="M576,225.771c1.403,4.597,5.987,6.013,10,8
	C582.859,234.879,575.703,231.426,576,225.771z"/>
<path fill-rule="evenodd" clip-rule="evenodd" d="M24,245.771c-1.402,2.473-3.445,1.765-6,1c0.09-2.729-1.666-2.013,0-4
	c-2.722,2.222-6.282-1.122-6-5C16.477,241.009,19.408,241.531,24,245.771z"/>
<path fill-rule="evenodd" clip-rule="evenodd" d="M354,264.771c-0.408-2.925-3.422-3.245-5-5c2.133-1.181,9.25,2.491,11,0
	c1.876,1.124,2.124,3.876,4,5C361.594,266.984,358.223,262.676,354,264.771z"/>
<path fill-rule="evenodd" clip-rule="evenodd" d="M290,271.771c-4.085,0.302,0.169-1.385-1-4c-1.844,3.843-5.632-2.292-9-3
	c-1.757,0.91-1.829,3.504-3,5c-0.927-4.283,2.649-12.666,5-17C285.796,258.508,294.675,263.355,290,271.771z"/>
<path fill-rule="evenodd" clip-rule="evenodd" d="M275,274.771c-0.443,0.891-0.878,1.788-2,2c0.027,0.973,1.224,0.776,2,1
	c-0.319,2.348-3.095,2.238-4,4C271.101,282.128,270.785,273.614,275,274.771z"/>
<path fill-rule="evenodd" clip-rule="evenodd" d="M371,285.771c0.19-1.135,1.003-0.556,1,0c6.734-2.6,11.425-7.241,19-9
	c-0.182,2.182,0.818,3.182,3,3c-0.885,0.572-4.437,4.124-2,2c1.258,0.247,1.009,1.988,0,2c-0.716,2.716,4.716-0.716,4,2
	c2.259-0.56-1.213-1.56,1-3c2.178,3.272,8.822-2.188,11,4c1.484-0.437-0.395-1.279,0-3c1.23,1.117,2.054,0.87,2-1
	c2.221,0.415,0.96,5.483-1,5c0.319,2.124,3.095-1.428,4-2c1.383,1.34-2.893,6.611-6,4c3.075,1.375-0.201,8.064,2,7
	c1.135,0.19,0.556,1.003,0,1c0,0.667,0,1.333,0,2c-1.342-0.658-1.862-2.138-2-4C392.875,301.173,382.38,289.381,371,285.771z"/>
<path fill-rule="evenodd" clip-rule="evenodd" d="M287,295.771c2.856,3.229,2.309,3.583,3-1c1.172,0.161,0.843,1.823,1,3
	c1.483-0.85,2.149-2.517,2-5c1.739,2.114,0.548,14.055-3,11c0.013,1.987,2.729,1.271,2,4c-7.397-0.492-7.171,2.699-15,3
	c1.526-4.526-3.837-2.163-5-4c0.332-3.998-1.783-5.551-1-10C281.703,295.969,282.382,303.191,287,295.771z"/>
<path fill-rule="evenodd" clip-rule="evenodd" d="M282,311.771c-0.051,9.274-4.599,16.685-13,12c1.5-3.166,4.456-4.877,9-5
	C282.625,318.273,278.632,311.378,282,311.771z"/>
<path fill-rule="evenodd" clip-rule="evenodd" d="M661,322.771c0.163-1.162-0.221-1.779-1-2c1.452-4.272,6.711,0.016,10,0
	C667.839,321.586,664.162,320.811,661,322.771z"/>
<path fill-rule="evenodd" clip-rule="evenodd" d="M37,321.771c2.674-1.155-7.619,4.887-9,3C29.208,319.789,33.39,323.296,37,321.771
	z"/>
<path fill-rule="evenodd" clip-rule="evenodd" d="M667,325.771c3.125-0.306-2.542,2.889,1,3c-2.038,2.295-8.305,0.362-12,1
	C656.3,324.835,666.334,327.395,667,325.771z"/>
<path fill-rule="evenodd" clip-rule="evenodd" d="M94,60.771c4.598,4.341-7.807,0.174-9-2c3.561-4.439,9.928-6.072,16-8
	c-4.833-1.477-11.333,3.984-17,5c-3.328-3.6-2.149-12.173,1-15c2.934,0.85-1.301,2.517,0,5c3.955-6.379,6.665-14.002,13-18
	c2.798,5.971,5.636,13.436,4,21c1.177-1.49,2.51-2.822,4-4c-9.324-12.455-5.111-21.989,7-28c2.375,0.625,4.655,1.345,5,4
	c-3.677-2.005-4.98,1.653-7,4c1.66,4.693-0.574,6.976-1,12c-2.134,0.467-1.905-1.429-2-3c-2.759,3.145-0.953,4.908-2,9
	c5.074,1.74,2.326-4.34,6-4c-1.382,4.049,2.17,3.162,2,6c-3.965-2.314-2.864,1.184-7,1c3.116,6.101-1.865,11.902-1,19
	c-1.151,3.235-1.132-2.686-1-4C101.329,61.467,97.397,62.498,94,60.771z"/>
<path fill-rule="evenodd" clip-rule="evenodd" d="M571,88.771c2.333,0,4.667,0,7,0c0.005,4.005-4.686,3.314-6,6
	C570.016,92.881,570.296,91.266,571,88.771z"/>
<path fill-rule="evenodd" clip-rule="evenodd" d="M505,259.771c4.354-2.312,10.796-2.537,12-8c4.214,2.199,5.225,5.544,4,11
	c-2.002-7.69-7.761,3.969-9-1c-1.313,0.354-1.573,1.761-3,2c0.902,5.431,7.771,4.896,9,10
	C512.831,273.925,507.425,265.691,505,259.771z"/>
<path fill-rule="evenodd" clip-rule="evenodd" d="M395,266.771c-6.045,8.289-14.957,13.71-26,17c-2.059-0.274-0.941-3.726-3-4
	c3.372-1.063,4.02-6.046,0-7c1.614-3.363,3.166,3.144,5,0c-3.119-4.153,0.19-1.568,2-5c-0.19-0.81-1.003-0.997-1-2
	c-1.141,0.889,0.618,2.792-4,2c0.34-2.007-0.204-3.129-2-3c0.745-2.255,5.609-0.391,8-1c1.666,1.987-0.091,1.271,0,4c1,0,2,0,3,0
	c-0.924-1.742,0.034-5.367-3-5c3.948-7.066,8.243-8.98,14-3C384.241,261.455,390.081,265.445,395,266.771z M383,260.771
	c-1.122,0.212-1.557,1.109-2,2c1.891,0.224,2.206-1.127,4-1c0.17-2.503-1.536-3.131-3-4
	C381.957,259.148,382.471,259.968,383,260.771z"/>
</svg>
