<?xml version="1.0" encoding="utf-8"?>
<!-- Generator: Adobe Illustrator 15.1.0, SVG Export Plug-In  -->
<!DOCTYPE svg PUBLIC "-//W3C//DTD SVG 1.1//EN" "http://www.w3.org/Graphics/SVG/1.1/DTD/svg11.dtd" [
	<!ENTITY ns_flows "http://ns.adobe.com/Flows/1.0/">
]>
<svg version="1.1"
	 xmlns="http://www.w3.org/2000/svg" xmlns:xlink="http://www.w3.org/1999/xlink" xmlns:a="http://ns.adobe.com/AdobeSVGViewerExtensions/3.0/"
	 x="0px" y="0px" width="1042px" height="751px" viewBox="0 0 1042 751" overflow="visible" enable-background="new 0 0 1042 751"
	 xml:space="preserve">
<defs>
</defs>
<path fill-rule="evenodd" clip-rule="evenodd" fill="#FFFFFF" d="M500.35,13.799C490.785,16.749,487.002,12.642,500.35,13.799
	L500.35,13.799z"/>
<path fill-rule="evenodd" clip-rule="evenodd" fill="#FFFFFF" d="M713.35,374.799c-1.52,5.147-2.873,10.46-8,12
	c-0.335-3.332-2.897-4.436-2-9C706.088,376.204,709.392,375.175,713.35,374.799z"/>
<path fill-rule="evenodd" clip-rule="evenodd" fill="#FFFFFF" d="M877.35,491.799c3.422,9.744-2.757,30.098-15,24
	C856.953,504.295,864.945,491.847,877.35,491.799z"/>
<path fill-rule="evenodd" clip-rule="evenodd" fill="#FFFFFF" d="M1022.35,574.799c4.027,6.306,5.497,15.17,6,25
	C1024.97,591.559,1021.42,579.016,1022.35,574.799z"/>
<path fill-rule="evenodd" clip-rule="evenodd" fill="#FFFFFF" d="M1028.35,627.799c1.853-2.43,0.675,6.592,1,9
	C1027.496,639.229,1028.675,630.208,1028.35,627.799z"/>
<path fill-rule="evenodd" clip-rule="evenodd" fill="#FFFFFF" d="M711.35,687.799c49.674,13.326,96.186,29.814,149,40
	c-26.348,2.061-53.563-5.271-78-12c-24.695-6.8-49.161-14.121-69-25C711.216,691.266,711.445,689.371,711.35,687.799z"/>
<path fill-rule="evenodd" clip-rule="evenodd" fill="#FFFFFF" d="M405.35,19.299c-5.49-0.407-13.573,4.029-23,7
	c-27.228,8.581-49.979,18.16-71,28c-21.081,9.868-46.871,21.443-65,34c-12.291,8.513,5.938-2.205,9-4
	c58.428-34.264,104.048-51.922,188-68c-5.39-0.943-14.783,2.116-17-2c94.534-16.657,174.218,12.822,168,104
	c-3.638,53.344-30.038,94.871-56,133c-26.88,39.477-58.972,73.336-86,97c3.221,2.099-8.177,8.639-9,7
	c-4.238,2.954-8.116,9.478-12,13c-1.268,1.15-10.517,2.925-9,9c-0.071-0.286,0.806,5.737,2,1c4.671-4.72,18.34-17.618,27-25
	c-6.175,12.858-22.65,20.638-26,33c11.336-6.613,17.666-21.476,27-31c12.693-12.951,27.476-23.538,40-37
	c12.21-13.125,24.423-26.785,36-41c23.466-28.812,40.812-61.117,63-90c-27.926,88.333-88.312,150.041-151,202
	c-3.421,2.835-11.623,5.152-10,12c8.035-1.183,15.291-7.993,21-13c32.7-28.679,63.992-60.893,92-93
	c11.459-13.136,21.484-28.176,37-37c-12.101,36.98-37.311,64.125-61,90c-23.988,26.203-53.876,46.946-81,70
	c5.214,8.119,9.421,17.245,15,25c73.347-44.473,144.492-118.396,180-207c5.554-13.859,12.774-30.524,13-43
	c0.291-16.108-11.568-42.196-28-39c-9.858,1.917-9.795,16.353-17,23c13.928-60.028,10.416-129.105-31-156
	c-40.256-26.142-116.157-19.642-166-5c2.923,1.054,9.336-2.106,7,0c1.867,4.79-11.191-2.008-9,2
	C403.526,18.456,405.188,18.127,405.35,19.299z M496.35,17.299C483.002,16.142,486.785,20.249,496.35,17.299L496.35,17.299z
	 M400.35,28.299c3.149-1.184,7.542-1.124,10-3C407.099,25.454,396.412,27.469,400.35,28.299z M567.35,46.299
	c-7.326-6.674-15.26-12.74-25-17C549.173,35.814,560.485,43.157,567.35,46.299z M571.35,57.299c2.241,5.759,6.129,9.872,10,14
	c-0.827-3.049-0.118-5.092-1-6C577.56,66.387,575.301,58.375,571.35,57.299z M192.35,131.299c4.497,1.401,6.42-2.217,9-6
	c7.426,0.466-4.228,5.699-3,8c7.031-4.944,12.964-10.431,17-14c7.573-6.697-5.176,4.525-11,7c-0.239-1.427-1.646-1.687-2-3
	c5.542-2.01,2.088-1.62,3,1c2.495-3.905,5.307-7.913,4-3c1.498-1.502,1.789-4.211,4-5c0.102,1.122-1.454,1.557,0,2
	c1.004-1.329,0.946-3.721,3-4c0.102,1.122-1.454,1.557,0,2c29.555-22.445,63.078-40.922,98-58
	C268.361,76.185,223.668,105.336,192.35,131.299z M177.35,145.299c-2.212-1.44,1.259-2.44-1-3c-10.971,10.71,6.157,3.9,7-2
	c-0.057,0.61-0.149,1.184-1,1c-1.622-0.072,0.669-3.317-1-3c-4.8,0.913-0.562,4.3,0,4c-0.003-0.555,0.81-1.135,1,0
	C179.843,143.042,179.187,142.426,177.35,145.299z M298.35,172.299c3.504-5.618,12.782-10.386,12-17c-3.185-3.895-13.089-1.548-17,0
	C303.625,156.362,300.411,168.025,298.35,172.299z M224.35,173.299c-0.753,5.068,3.82-2.147,4,1c-1.964,1.703-4.998,2.335-6,5
	c-0.388,8.624-17.637,14.352-20,21c2.973-2.054,8.205-7.092,12-5c-4.629,2.038-8.504,4.83-12,8c8.37-0.973,16.69-7.297,23-7
	c-2.635,1.075-9.312,3.297-8,5c4.27-4.73,14.985-3.015,22-5c-1.702,1.896,0.581,5.525,2,2c0.148,3.073-3.519,4.497-1,7
	c-2.881-1.804-3.651,4.438-3,6c3.071-2.95,5.863-11.443,9-11c-10.638,16.071-24.522,27.11-36,46c2.444-3.245,9.722-6.915,9-10
	c-0.097,1.38-3.903,3.902-4,2c25.687-21.98,61.059-39.607,79-66c-0.261,1.406-2.193,1.14-3,2c-2.924-4.292-10.846-13.14-4-18
	c-18.829,0.173-34.672,8.658-48,11c1.086-0.239,2.401-1.646,1-2C235.205,168.154,230.289,171.238,224.35,173.299z M106.35,203.299
	c9.449-8.586,23.707-22.913,29-29C125.9,182.885,111.643,197.212,106.35,203.299z M72.35,244.299c1.428-4.999-3.077,2.858-4,4
	c-28.655,35.442-64.199,91.31-68,148c-2.906,43.342,12.562,72.225,37,86c-21.503-16.83-32.24-44.427-31-84
	c0.785-4.465-1.535-6.786-1-1c0,3.333,0,6.667,0,10c-3.249,8.964,2.999,21.385,1,29c-10.696-41.407,4.699-88.338,19-111
	c-1.177,3.85-5.663,9.634-4,13c-0.054-1.72,0.77-2.563,2-3c-2.112,4.222-4.092,8.574-6,13c10.499-16.061,16.424-33.81,26-50
	c18.652-31.535,42.443-60.372,66-86c12.065-13.126,26.283-24.564,36-39c-18.169,17.321-37.107,36.155-55,57
	c-17.593,20.495-32.103,44.662-48,64c15.575-23.425,30.548-47.452,49-68c4.103-4.849,6.334-7.339,0-2
	c-26.821,32.18-51.081,66.918-71,106C33.934,297.884,51.752,269.702,72.35,244.299z M208.35,184.299c3.183-1.629-19.393,4.867-17,9
	c1.289-0.806,5.612-3.594,6-2c-6.662,4.005-11.424,9.909-15,17c4.567-2.463,1.814-2.511,5-5c-0.054,1.72,0.77,2.563,2,3
	c0.215-2.903,6.28-9.096,4-8c-1.352-0.169-1.999,5.085-3,2c3.938-4.062,6.733-9.267,13-11c-3.233,6.767-10.21,9.79-13,17
	c13.472-6.225,21.148-28.812,32-31C215.371,175.566,212.276,182.29,208.35,184.299z M77.35,236.299c5.261-4.172,13.562-15.637,15-17
	C86.315,223.932,82.342,230.625,77.35,236.299z M192.35,263.299c5.075-7.078-4.403,3.377-6,1c6.614-10.515-8.978-16.119-9-29
	c-3.182,0.168-7.362,2.344-10,0c-1.824-5.207,3.804-8.129,1-11c-51.574,47.759-99.784,98.883-112,186
	c5.684,7.649,11.08,15.587,20,20C104.306,363.924,144.479,309.761,192.35,263.299z M493.35,226.299c9.477,0.636,13.096-2.208,20,1
	c-8.446,1.229-23.936,0.719-28,3c5.459-0.126,10.665,0.002,14,2c-0.614,1.386-3.85,0.15-4,2c16.167-3.414,39.478-3.625,55-2
	c-0.483-3.15,3.069-2.264,2-6C531.564,225.865,508.337,222.557,493.35,226.299z M518.35,238.299c11.297-0.643,27.432,3.622,30-5
	c-24.214-0.275-51.601,0.692-65,8c0.776-0.224,1.973-0.027,2-1C493.073,242.222,505.516,239.029,518.35,238.299z M929.35,725.299
	c-70.288,3.893-136.817-19.156-190-42c-107.062-45.985-196.008-111.479-266-198c-32.889-40.656-74-92.962-74-158
	c0-49.372,26.819-77.464,64-93c-42.244,8.576-71.557,35.936-75,84c-4.291,59.896,22.753,90.626,35,147
	c9.669,44.509,22.796,109.642,40,138c7.2,11.869,23.811,23.866,37,34c4.4,3.381,8.317,9.033,13,8c-6.364-23.31-8.84-52.636-3-78
	c23.752,17.053,47.155,35.651,71,52c8.068,5.531,18.447,9.879,25,16c22.233,20.768,23.95,56.292,41,84
	c48.547,17.38,114.524,32,187,32c102.22,0,196.249-9.395,204-101C1023.049,698.077,984.866,722.225,929.35,725.299z M462.35,250.299
	c-2.542,2.646-5.266-3.352-3,2c-7.172-0.465-15.307,7.578-19,14c9.75-10.25,24.102-15.898,38-22
	C472.666,247.055,458.204,248.744,462.35,250.299z M669.35,266.299c4.666-0.054,14.515,2.257,15,6c5.738-1.424,7.598,3.126,9,4
	c0.168-1.165,1.581-1.086,3-1c19.894,11.156,40.773,20.375,47,25c3.671,2.727,17.902,5.772,24,13c10.101,2.93,21.268,10.091,30,15
	c2.291,1.289,7.634,6.041,7,3c-20.938-13.396-42.609-26.057-64-39c3.8,1.534,6.639,4.027,11,5c1.012,0.857-9.087-7.327-13-5
	c2.546-2.121-2.525-3.899-4-2c0.39-1.427,1.2-1.687,0-3c-26.075-10.592-52.596-26.069-80-32c26.466,9.867,52.623,20.043,75,34
	c-24.22-12.113-49.275-23.392-76-33c-2.36,3.64-5.592,6.408-7,11c4.401,2.317,5.179-6.518,8-9c5.265,3.402,13.338,3.995,18,8
	C671.013,266.19,666.837,264.425,669.35,266.299z M647.35,270.299c0.054-1.72-0.77-2.563-2-3c-13.851,24.483-31.943,50.056-47,70
	C617.054,317.337,631.271,292.886,647.35,270.299z M422.35,294.299c7.094-10.572,20.561-14.772,25-28
	C432.509,269.557,422.083,287.806,422.35,294.299z M528.35,410.299c0.809-1.858,1.293-4.041,3-5c-5.149-3.295-13.275,7.316-13,6
	c4.439-0.258,7.57-7.056,11-5c-2.895,0.804-1.302,4.888-1,7c-10.162,3.171-15.669,10.997-24,16c-0.286-1.763,4.709-3.097,2-4
	c-3.734,4.266-9.739,6.261-15,9c3.514-7.153,9.798-11.536,16-16c-7.644,6.916-35.605,14.082-40,21c0.122-0.191,2.496,0.36,2,1
	c-1.891-0.224-2.207,1.127-4,1c-0.102-1.122,1.454-1.557,0-2c-4.771,2.854-2.914,4.496-4,8c2.096-1.964,2.407-4.998,3-6
	c6.844,0.963,10.675-9.291,17-6c-0.772-4.88,5.465-2.322,5-5c1.122,0.212,1.557,1.109,2,2c-0.447,7.565-14.37,6.947-13,13
	c4.906-2.11,10.825-8.486,16-7c-4.532,2.802-10.088,4.579-14,8c1.122,0.212,1.557,1.109,2,2c-6.637,2.458-11.696,1.415-18,5
	c-0.433,3.767,2.113,4.554,4,6c3.659-3.008,7.676-5.657,12-8c0.286,1.763-4.709,3.097-2,4c2.791-1.675,7.843-5.48,12-8
	c11.509-6.975,3.025,0.479-4-1c11.382-6.621,23.301-18.028,34-22c-7.121,4.546-13.398,9.936-20,15c6.271-1.988,5.367-1.067,9-4
	c0.102,1.122-1.454,1.557,0,2c4.028-3.095,13.354-10.963,19-12c-0.555-0.003-1.135,0.811,0,1c0.632-2.473,0.242-3.91,4-5
	c0.534,1.44-3.896,2.44-1,3c6.763-8.179,16.927-11.309,25-20c-2.333-0.294-2.333-2.706,0-3c-0.39,1.427-1.2,1.687,0,3
	c7.928-5.073,15.702-10.298,22-17c-6.243,1.215-12.739,10.502-20,14c-1.202-6.637,8.39-17.142,13-15c-7.397,8.308-9.159,9.707-4,6
	c6.922-4.973,17.647-16.95,21-20c9.59-8.724,24.716-19.042,29-32c-18.499,9.501-31.57,24.43-44,40
	c-13.111,9.184-20.964,18.939-31,27c-0.224-0.776-0.027-1.972-1-2c-2.213,1.44,1.259,2.44-1,3c-0.111-0.795-3.306-3.031-3-1
	C534.032,411.943,533.169,406.836,528.35,410.299z M567.35,381.299c-0.157-5.515,7.217-8.75,4-14c-7.387,4.955-11.769,11.55-18,17
	c-7.797,6.82-18.066,11.37-22,19c1.917-2.083,3.833-4.167,7-5c0.283,1.826-3.204,6.399-1,4c1.198-7.953,9.114-11.23,15-17
	c-4.348,3.652-4.156,11.844-10,14C548.431,400.25,557.978,386.11,567.35,381.299z M518.35,430.299c-9.456,6.21-19.355,11.978-28,19
	C499.748,444.313,514.502,434.187,518.35,430.299z M93.35,408.299c8.096-9.357,11.659-23.044,20-34
	C103.175,382.125,99.815,396.765,93.35,408.299z M856.35,377.299c14.256,8.08,24.558,25.44,39,30c-5.884-4.45-11.6-9.067-16-15
	c30.173,23.494,55.805,56.861,81,82c-1.44-0.56-2.44-1.56-3-3c2.039,0.294,1.961,2.706,4,3
	C931.561,437.025,896.767,397.75,856.35,377.299z M1003.35,539.299c-0.484-1.182-1.066-2.268-2-3c-1.648,2.799,5.611,8.344,6,9
	c10.376,17.513,24.975,61.9,21,92c-0.347,2.624-4.42,18.118-5,12c0.812,14.15-7.891,24.103-10,32
	c35.479-42.729,8.206-124.738-15-158c-6.817-7.422-20.356-28.643-29-40c-1.976-2.596-6.32-11.914-10-6c3.314-1.72,4.338,0.602,6,3
	c-1.44,2.213-2.44-1.259-3,1c14.245,13.038,27.497,28.953,36,50c-4.219-9.172-14.09-23.166-17-27
	C988.824,520.105,1001.451,533.36,1003.35,539.299z M699.35,381.299c-0.897,4.564,1.665,5.668,2,9c5.127-1.54,6.48-6.853,8-12
	C705.392,378.675,702.088,379.704,699.35,381.299z M91.35,416.299c-0.003-3.336,3.253-3.414,3-7
	C91.896,409.579,89.74,415.267,91.35,416.299z M838.35,506.299c-2.891-3.833-5.714-7.97-5-13c0.742-5.229,17.242-26.688,26-29
	c4.229-1.116,6.73,1.355,9-1c-2.949-10.074-14.558-15.723-23-22c-3.977-2.957-7.825-7.146-12-10c-4.198-2.87-11.104-7.397-13-6
	c-1.417,21.046-6.068,43.756-29,40C808.422,476.895,822.875,496.439,838.35,506.299z M953.35,475.299c-1.122,0.102-1.557-1.453-2,0
	c5.242,4.142,6.46,4.225,8,6c6.1,7.034,14.397,18.441,8,9c-3.166-4.673-15.021-17.128-21-23c-10.166-9.982-16.912-28.694-28-30
	C931.199,448.783,941.115,463.201,953.35,475.299z M19.35,447.299c-1.322-0.012-0.914-1.753-2-2c-2.165,8.582,3.425,16.939,8,22
	c0.312-6.344-6.824-12.896-7-20C18.347,447.855,19.16,448.434,19.35,447.299z M865.35,470.299c-1.893,0.716-6.611,9.096-4,5
	c2.039-0.294,1.961-2.706,4-3c2.908-2.568,7.064,1.313,9-1C871.857,470.458,868.992,469.99,865.35,470.299z M890.35,479.299
	c2.747,4.266-8.348,7.931-6,18c6.244,2.861,16.362,12.162,18,13c-1.814-2.853-4.897-4.436-4-10c15.015-0.682,16.133,12.534,22,21
	c-2.615-0.282-4.302,0.365-4,3c4.614,10.39,11.998,23.329,16,31c-0.152-3.181-2.268-4.399-2-8c8.546,9.916,17.233,31.962,16,52
	c-0.351,5.688-3.622,17.724-10,19c-11.987,2.399-25.412-20.795-31-30c-6.139-10.112-11.464-20.019-19-26
	c13.4,20.601,28.053,39.947,42,60c-1.182-0.144-2.268-1.78-3,0c5.307,4.766,9.338,11.537,17,9c24.954-8.263,1.561-80.795,0-91
	c-11.918-22.679-26.479-46.684-40-55c7.783,9.052,14.11,13.38,20,24C911.066,500.517,903.033,480.317,890.35,479.299z
	 M245.35,488.299c-0.057,0.61-0.149,1.184-1,1c-29.941,10.308-63.712,20.741-94,31c-9.642,3.266-22.543,4.546-27,15
	c12.145,2.188,26.885,1.781,39,4c19.606-20.061,54.695-24.639,79-40c-0.776-0.224-1.973-0.027-2-1c1.753-0.276,4.99,2.815,6,0
	c-4.939-0.553,1.04-0.514,1-2c-1.349-2.603-6.981,0.633-7-1C240.777,493.755,247.935,489.294,245.35,488.299z M858.35,519.299
	c12.243,6.098,18.422-14.256,15-24C860.945,495.347,852.953,507.795,858.35,519.299z M1001.35,543.299
	c-2.867-8.871-12.584-21.321-15-24C990.783,526.604,999.178,540.376,1001.35,543.299z M878.35,552.299
	c-10.387-6.543-8.58-25.139-22-26C862.381,535.605,871.156,547.487,878.35,552.299z M1017.35,579.299c1.793-5.709-2.447-13.37-6-17
	C1012.698,569.19,1016.347,574.828,1017.35,579.299z M1024.35,603.299c-0.503-9.83-1.973-18.694-6-25
	C1017.42,582.516,1020.97,595.059,1024.35,603.299z M922.35,638.299c-8.017-18.651-18.58-40.085-30-52
	C903.415,602.568,912.516,620.8,922.35,638.299z M938.35,614.299c1.59-2.41,2.688-5.312,4-8c0.826-2.37-1.409-4.606-1-1
	c-1.286,2.752-3.696,9.586-8,6c5.963,0.142,6.295-16.278,10-9c0.12-4.787,0.066-9.399-2-12c-0.117,11.793-7.511,21.523-15,20
	C928.545,613.593,933.404,616.743,938.35,614.299z M931.35,606.299c-12.643,1.498,9.332,1.326,4-4
	C934.446,604.062,933.112,605.396,931.35,606.299z M1025.35,640.299c-0.325-2.408,0.853-11.43-1-9
	C1024.675,633.708,1023.496,642.729,1025.35,640.299z M1001.35,691.299c4.906-6.434,14.017-13.975,12-24
	c-0.185,4.637-10.255,7.998-5,9C1004.466,679.1,1001.47,688.063,1001.35,691.299z"/>
<path fill-rule="evenodd" clip-rule="evenodd" fill="#FFFFFF" d="M406.35,14.799c-2.191-4.008,10.867,2.79,9-2
	c2.336-2.106-4.077,1.054-7,0c49.843-14.642,125.744-21.142,166,5c41.416,26.895,44.928,95.972,31,156
	c7.205-6.647,7.142-21.083,17-23c16.432-3.196,28.291,22.892,28,39c-0.226,12.476-7.446,29.141-13,43
	c-35.508,88.604-106.653,162.527-180,207c-5.579-7.755-9.786-16.881-15-25c27.124-23.054,57.012-43.797,81-70
	c23.689-25.875,48.899-53.02,61-90c-15.516,8.824-25.541,23.864-37,37c-28.008,32.107-59.3,64.321-92,93
	c-5.709,5.007-12.965,11.817-21,13c-1.623-6.848,6.579-9.165,10-12c62.688-51.959,123.074-113.667,151-202
	c-22.188,28.883-39.534,61.188-63,90c-11.577,14.215-23.79,27.875-36,41c-12.524,13.462-27.307,24.049-40,37
	c-9.334,9.524-15.664,24.387-27,31c3.35-12.362,19.825-20.142,26-33c-8.66,7.382-22.329,20.28-27,25c-1.194,4.737-2.071-1.286-2-1
	c-1.517-6.075,7.732-7.85,9-9c3.884-3.522,7.762-10.046,12-13c0.823,1.639,12.221-4.901,9-7c27.028-23.664,59.12-57.523,86-97
	c25.962-38.129,52.362-79.656,56-133c6.218-91.178-73.466-120.657-168-104c2.217,4.116,11.61,1.057,17,2
	c-83.952,16.078-129.572,33.736-188,68c-3.062,1.795-21.291,12.513-9,4c18.129-12.557,43.919-24.132,65-34
	c21.021-9.84,43.772-19.419,71-28c9.427-2.971,17.51-7.407,23-7C409.188,14.627,407.526,14.956,406.35,14.799z"/>
<path fill-rule="evenodd" clip-rule="evenodd" fill="#FFFFFF" d="M414.35,21.799c-2.458,1.876-6.851,1.816-10,3
	C400.412,23.969,411.099,21.954,414.35,21.799z"/>
<path fill-rule="evenodd" clip-rule="evenodd" fill="#FFFFFF" d="M546.35,25.799c9.74,4.26,17.674,10.326,25,17
	C564.485,39.657,553.173,32.314,546.35,25.799z"/>
<path fill-rule="evenodd" clip-rule="evenodd" fill="#FFFFFF" d="M584.35,61.799c0.882,0.908,0.173,2.951,1,6
	c-3.871-4.128-7.759-8.241-10-14C579.301,54.875,581.56,62.887,584.35,61.799z"/>
<path fill-rule="evenodd" clip-rule="evenodd" fill="#FFFFFF" d="M318.35,54.799c-34.922,17.078-68.445,35.555-98,58
	c-1.454-0.443,0.102-0.878,0-2c-2.054,0.279-1.996,2.671-3,4c-1.454-0.443,0.102-0.878,0-2c-2.211,0.789-2.502,3.498-4,5
	c1.307-4.913-1.505-0.905-4,3c-0.912-2.62,2.542-3.01-3-1c0.354,1.313,1.761,1.573,2,3c5.824-2.475,18.573-13.697,11-7
	c-4.036,3.569-9.969,9.056-17,14c-1.228-2.301,10.426-7.534,3-8c-2.58,3.783-4.503,7.401-9,6
	C227.668,101.836,272.361,72.685,318.35,54.799z"/>
<path fill-rule="evenodd" clip-rule="evenodd" fill="#FFFFFF" d="M186.35,138.799c-0.19-1.135-1.003-0.555-1,0
	c-0.562,0.3-4.8-3.087,0-4c1.669-0.317-0.622,2.928,1,3c0.851,0.184,0.943-0.39,1-1c-0.843,5.9-17.971,12.71-7,2
	c2.259,0.56-1.212,1.56,1,3C183.187,138.926,183.843,139.542,186.35,138.799z"/>
<path fill-rule="evenodd" clip-rule="evenodd" fill="#FFFFFF" d="M297.35,151.799c3.911-1.548,13.815-3.895,17,0
	c0.782,6.614-8.496,11.382-12,17C304.411,164.525,307.625,152.862,297.35,151.799z"/>
<path fill-rule="evenodd" clip-rule="evenodd" fill="#FFFFFF" d="M244.35,161.799c1.401,0.354,0.086,1.761-1,2
	c13.328-2.342,29.171-10.827,48-11c-6.846,4.86,1.076,13.708,4,18c0.807-0.86,2.739-0.594,3-2c-17.941,26.393-53.313,44.02-79,66
	c0.097,1.902,3.903-0.62,4-2c0.722,3.085-6.556,6.755-9,10c11.478-18.89,25.362-29.929,36-46c-3.137-0.443-5.929,8.05-9,11
	c-0.651-1.562,0.119-7.804,3-6c-2.519-2.503,1.148-3.927,1-7c-1.419,3.525-3.702-0.104-2-2c-7.015,1.985-17.73,0.27-22,5
	c-1.312-1.703,5.365-3.925,8-5c-6.31-0.297-14.63,6.027-23,7c3.496-3.17,7.371-5.962,12-8c-3.795-2.092-9.027,2.946-12,5
	c2.363-6.648,19.612-12.376,20-21c1.002-2.665,4.036-3.297,6-5c-0.18-3.147-4.753,4.068-4-1
	C234.289,167.738,239.205,164.654,244.35,161.799z M265.35,163.799c-4.776,1.557-10.326,2.341-14,5
	C257.841,168.958,261.663,166.446,265.35,163.799z M287.35,175.799c-1.72-0.395-2.563,1.484-3,0c1.14-2.194,2.581-4.086,2-8
	c-1.799-1.584-6.97-4.964-10-2C285.336,162.966,281.282,182.191,287.35,175.799z M272.35,190.799c-0.725,0.728-3.735,1.434-2,3
	C278.427,187.559,279.226,183.899,272.35,190.799z M249.35,194.799c5.403-0.482-0.308-10.46-3-6
	C250.082,188.191,251.599,192.432,249.35,194.799z"/>
<path fill-rule="evenodd" clip-rule="evenodd" fill="#FFFFFF" d="M251.35,168.799c3.674-2.659,9.224-3.443,14-5
	C261.663,166.446,257.841,168.958,251.35,168.799z"/>
<path fill-rule="evenodd" clip-rule="evenodd" fill="#FFFFFF" d="M276.35,165.799c3.03-2.964,8.201,0.416,10,2
	c0.581,3.914-0.86,5.806-2,8c0.437,1.484,1.28-0.395,3,0C281.282,182.191,285.336,162.966,276.35,165.799z"/>
<path fill-rule="evenodd" clip-rule="evenodd" fill="#FFFFFF" d="M139.35,170.799c-5.293,6.087-19.551,20.414-29,29
	C115.643,193.712,129.9,179.385,139.35,170.799z"/>
<path fill-rule="evenodd" clip-rule="evenodd" fill="#FFFFFF" d="M24.35,326.799c19.919-39.082,44.179-73.82,71-106
	c6.334-5.339,4.103-2.849,0,2c-18.452,20.548-33.425,44.575-49,68c15.897-19.338,30.407-43.505,48-64
	c17.893-20.845,36.831-39.679,55-57c-9.717,14.436-23.935,25.874-36,39c-23.557,25.628-47.348,54.465-66,86
	c-9.576,16.19-15.501,33.939-26,50c1.908-4.426,3.888-8.778,6-13c-1.23,0.437-2.054,1.28-2,3c-1.663-3.366,2.823-9.15,4-13
	c-14.301,22.662-29.696,69.593-19,111c1.999-7.615-4.249-20.036-1-29c0-3.333,0-6.667,0-10c-0.535-5.786,1.785-3.465,1,1
	c-1.24,39.573,9.497,67.17,31,84c-24.438-13.775-39.906-42.658-37-86c3.801-56.69,39.345-112.558,68-148
	c0.923-1.142,5.428-8.999,4-4C55.752,266.202,37.934,294.384,24.35,326.799z M45.35,293.799c-5.383,10.621-14.683,22.646-16,34
	C32.636,315.707,43.76,300.937,45.35,293.799z"/>
<path fill-rule="evenodd" clip-rule="evenodd" fill="#FFFFFF" d="M226.35,171.799c-10.852,2.188-18.528,24.775-32,31
	c2.79-7.21,9.767-10.233,13-17c-6.267,1.733-9.062,6.938-13,11c1.001,3.085,1.648-2.169,3-2c2.28-1.096-3.785,5.097-4,8
	c-1.23-0.437-2.054-1.28-2-3c-3.186,2.489-0.433,2.537-5,5c3.576-7.091,8.338-12.995,15-17c-0.388-1.594-4.711,1.194-6,2
	c-2.393-4.133,20.183-10.629,17-9C216.276,178.79,219.371,172.066,226.35,171.799z"/>
<path fill-rule="evenodd" clip-rule="evenodd" fill="#FFFFFF" d="M270.35,193.799c-1.735-1.566,1.275-2.272,2-3
	C279.226,183.899,278.427,187.559,270.35,193.799z"/>
<path fill-rule="evenodd" clip-rule="evenodd" fill="#FFFFFF" d="M246.35,188.799c2.692-4.46,8.403,5.518,3,6
	C251.599,192.432,250.082,188.191,246.35,188.799z"/>
<path fill-rule="evenodd" clip-rule="evenodd" fill="#FFFFFF" d="M96.35,215.799c-1.438,1.363-9.739,12.828-15,17
	C86.342,227.125,90.315,220.432,96.35,215.799z"/>
<path fill-rule="evenodd" clip-rule="evenodd" fill="#FFFFFF" d="M80.35,426.799c-8.92-4.413-14.316-12.351-20-20
	c12.216-87.117,60.426-138.241,112-186c2.804,2.871-2.824,5.793-1,11c2.638,2.344,6.818,0.168,10,0c0.022,12.881,15.614,18.485,9,29
	c1.597,2.377,11.075-8.078,6-1C148.479,306.261,108.306,360.424,80.35,426.799z"/>
<path fill-rule="evenodd" clip-rule="evenodd" fill="#FFFFFF" d="M556.35,222.799c1.069,3.736-2.483,2.85-2,6
	c-15.522-1.625-38.833-1.414-55,2c0.15-1.85,3.386-0.614,4-2c-3.335-1.998-8.541-2.126-14-2c4.064-2.281,19.554-1.771,28-3
	c-6.904-3.208-10.523-0.364-20-1C512.337,219.057,535.564,222.365,556.35,222.799z"/>
<path fill-rule="evenodd" clip-rule="evenodd" fill="#FFFFFF" d="M489.35,236.799c-0.027,0.973-1.224,0.776-2,1
	c13.399-7.308,40.786-8.275,65-8c-2.568,8.622-18.703,4.357-30,5C509.516,235.529,497.073,238.722,489.35,236.799z"/>
<path fill-rule="evenodd" clip-rule="evenodd" fill="#FFFFFF" d="M1042.35,646.799c-7.751,91.605-101.78,101-204,101
	c-72.476,0-138.453-14.62-187-32c-17.05-27.708-18.767-63.232-41-84c-6.553-6.121-16.932-10.469-25-16
	c-23.845-16.349-47.248-34.947-71-52c-5.84,25.364-3.364,54.69,3,78c-4.683,1.033-8.6-4.619-13-8c-13.189-10.134-29.8-22.131-37-34
	c-17.204-28.358-30.331-93.491-40-138c-12.247-56.374-39.291-87.104-35-147c3.443-48.064,32.756-75.424,75-84
	c-37.181,15.536-64,43.628-64,93c0,65.038,41.111,117.344,74,158c69.992,86.521,158.938,152.015,266,198
	c53.183,22.844,119.712,45.893,190,42C988.866,718.725,1027.049,694.577,1042.35,646.799z M469.35,474.799
	c-20.067-25.246-36.077-53.065-54-79c-0.087-0.125,0.598-2.542-1-2c-4.715,1.58-1.535,7.473-1,10c0.872,4.119,2.669,9.291,4,13
	c20.881,58.204,62.221,103.887,102,142c47.542,45.551,108.007,82.627,170,107C608.807,610.535,529.15,550.036,469.35,474.799z
	 M713.35,690.799c19.839,10.879,44.305,18.2,69,25c24.437,6.729,51.652,14.061,78,12c-52.814-10.186-99.326-26.674-149-40
	C711.445,689.371,711.216,691.266,713.35,690.799z"/>
<path fill-rule="evenodd" clip-rule="evenodd" fill="#FFFFFF" d="M689.35,665.799c-61.993-24.373-122.458-61.449-170-107
	c-39.779-38.113-81.119-83.796-102-142c-1.331-3.709-3.128-8.881-4-13c-0.535-2.527-3.715-8.42,1-10c1.598-0.542,0.913,1.875,1,2
	c17.923,25.935,33.933,53.754,54,79C529.15,550.036,608.807,610.535,689.35,665.799z"/>
<path fill-rule="evenodd" clip-rule="evenodd" fill="#FFFFFF" d="M482.35,240.799c-13.898,6.102-28.25,11.75-38,22
	c3.693-6.422,11.828-14.465,19-14c-2.266-5.352,0.458,0.646,3-2C462.204,245.244,476.666,243.555,482.35,240.799z"/>
<path fill-rule="evenodd" clip-rule="evenodd" fill="#FFFFFF" d="M602.35,333.799c15.057-19.944,33.149-45.517,47-70
	c1.23,0.437,2.054,1.28,2,3C635.271,289.386,621.054,313.837,602.35,333.799z"/>
<path fill-rule="evenodd" clip-rule="evenodd" fill="#FFFFFF" d="M676.35,262.799c-4.662-4.005-12.735-4.598-18-8
	c-2.821,2.482-3.599,11.317-8,9c1.408-4.592,4.64-7.36,7-11c26.725,9.608,51.78,20.887,76,33c-22.377-13.957-48.534-24.133-75-34
	c27.404,5.931,53.925,21.408,80,32c1.2,1.313,0.39,1.573,0,3c1.475-1.899,6.546-0.121,4,2c3.913-2.327,14.012,5.857,13,5
	c-4.361-0.973-7.2-3.466-11-5c21.391,12.943,43.062,25.604,64,39c0.634,3.041-4.709-1.711-7-3c-8.732-4.909-19.899-12.07-30-15
	c-6.098-7.228-20.329-10.273-24-13c-6.227-4.625-27.106-13.844-47-25c-1.419-0.086-2.832-0.165-3,1c-1.402-0.874-3.262-5.424-9-4
	c-0.485-3.743-10.334-6.054-15-6C670.837,260.925,675.013,262.69,676.35,262.799z"/>
<path fill-rule="evenodd" clip-rule="evenodd" fill="#FFFFFF" d="M451.35,262.799c-4.439,13.228-17.906,17.428-25,28
	C426.083,284.306,436.509,266.057,451.35,262.799z"/>
<path fill-rule="evenodd" clip-rule="evenodd" fill="#FFFFFF" d="M29.35,327.799c1.317-11.354,10.617-23.379,16-34
	C43.76,300.937,32.636,315.707,29.35,327.799z"/>
<path fill-rule="evenodd" clip-rule="evenodd" fill="#FFFFFF" d="M546.35,395.799c5.844-2.156,5.652-10.348,10-14
	c-5.886,5.77-13.802,9.047-15,17c-2.204,2.399,1.283-2.174,1-4c-3.167,0.833-5.083,2.917-7,5c3.934-7.63,14.203-12.18,22-19
	c6.231-5.45,10.613-12.045,18-17c3.217,5.25-4.157,8.485-4,14C561.978,382.61,552.431,396.75,546.35,395.799z"/>
<path fill-rule="evenodd" clip-rule="evenodd" fill="#FFFFFF" d="M538.35,403.799c-0.306-2.031,2.889,0.205,3,1
	c2.259-0.56-1.213-1.56,1-3c0.973,0.028,0.776,1.224,1,2c10.036-8.061,17.889-17.816,31-27c12.43-15.57,25.501-30.499,44-40
	c-4.284,12.958-19.41,23.276-29,32c-3.353,3.05-14.078,15.027-21,20c-5.159,3.707-3.397,2.308,4-6c-4.61-2.142-14.202,8.363-13,15
	c7.261-3.498,13.757-12.785,20-14c-6.298,6.702-14.072,11.927-22,17c-1.2-1.313-0.39-1.573,0-3c-2.333,0.294-2.333,2.706,0,3
	c-8.073,8.691-18.237,11.821-25,20c-2.896-0.56,1.534-1.56,1-3c-3.758,1.09-3.368,2.527-4,5c-1.135-0.19-0.555-1.003,0-1
	c-5.646,1.037-14.972,8.905-19,12c-1.454-0.443,0.102-0.878,0-2c-3.633,2.933-2.729,2.012-9,4c6.602-5.064,12.879-10.454,20-15
	c-10.699,3.972-22.618,15.379-34,22c7.025,1.479,15.509-5.975,4,1c-4.157,2.52-9.209,6.325-12,8c-2.709-0.903,2.286-2.237,2-4
	c-4.324,2.343-8.341,4.992-12,8c-1.887-1.446-4.433-2.233-4-6c6.304-3.585,11.363-2.542,18-5c-0.443-0.891-0.878-1.788-2-2
	c3.912-3.421,9.468-5.198,14-8c-5.175-1.486-11.094,4.89-16,7c-1.37-6.053,12.553-5.435,13-13c-0.443-0.891-0.878-1.788-2-2
	c0.465,2.678-5.772,0.12-5,5c-6.325-3.291-10.156,6.963-17,6c-0.593,1.002-0.904,4.036-3,6c1.086-3.504-0.771-5.146,4-8
	c1.454,0.443-0.102,0.878,0,2c1.793,0.127,2.109-1.224,4-1c0.496-0.64-1.878-1.191-2-1c4.395-6.918,32.356-14.084,40-21
	c-6.202,4.464-12.486,8.847-16,16c5.261-2.739,11.266-4.734,15-9c2.709,0.903-2.286,2.237-2,4c8.331-5.003,13.838-12.829,24-16
	c-0.302-2.112-1.895-6.196,1-7c-3.43-2.056-6.561,4.742-11,5c-0.275,1.316,7.851-9.295,13-6c-1.707,0.959-2.191,3.142-3,5
	C537.169,403.336,538.032,408.443,538.35,403.799z M594.35,356.799c-9.346,8.525-5.619,5.131,2,1c1.108,2.651-3.535,6.068-1,4
	c2.296-1.764,3.215-4.189,5-4c-0.779-0.221-1.163-0.837-1-2C596.523,354.973,596.759,357.208,594.35,356.799z"/>
<path fill-rule="evenodd" clip-rule="evenodd" fill="#FFFFFF" d="M494.35,445.799c8.645-7.022,18.544-12.79,28-19
	C518.502,430.687,503.748,440.813,494.35,445.799z"/>
<path fill-rule="evenodd" clip-rule="evenodd" fill="#FFFFFF" d="M599.35,355.799c-0.163,1.163,0.221,1.779,1,2
	c-1.785-0.189-2.704,2.236-5,4c-2.535,2.068,2.108-1.349,1-4c-7.619,4.131-11.346,7.525-2-1
	C596.759,357.208,596.523,354.973,599.35,355.799z"/>
<path fill-rule="evenodd" clip-rule="evenodd" fill="#FFFFFF" d="M117.35,370.799c-8.341,10.956-11.904,24.643-20,34
	C103.815,393.265,107.175,378.625,117.35,370.799z"/>
<path fill-rule="evenodd" clip-rule="evenodd" fill="#FFFFFF" d="M965.35,470.799c-2.039-0.294-1.961-2.706-4-3
	c0.56,1.44,1.56,2.44,3,3c-25.195-25.139-50.827-58.506-81-82c4.4,5.933,10.116,10.55,16,15c-14.442-4.56-24.744-21.92-39-30
	C900.767,394.25,935.561,433.525,965.35,470.799z"/>
<path fill-rule="evenodd" clip-rule="evenodd" fill="#FFFFFF" d="M985.35,500.799c2.91,3.834,12.781,17.828,17,27
	c-8.503-21.047-21.755-36.962-36-50c0.56-2.259,1.56,1.213,3-1c-1.662-2.398-2.686-4.72-6-3c3.68-5.914,8.024,3.404,10,6
	c8.644,11.357,22.183,32.578,29,40c23.206,33.262,50.479,115.271,15,158c2.109-7.897,10.812-17.85,10-32
	c0.58,6.118,4.653-9.376,5-12c3.975-30.1-10.624-74.487-21-92c-0.389-0.656-7.648-6.201-6-9c0.934,0.732,1.516,1.818,2,3
	C1005.451,529.86,992.824,516.605,985.35,500.799z M976.35,486.799c-1.42-4.246-4.619-6.715-7-10
	C969.434,479.994,972.055,483.635,976.35,486.799z"/>
<path fill-rule="evenodd" clip-rule="evenodd" fill="#FFFFFF" d="M98.35,405.799c0.253,3.586-3.003,3.664-3,7
	C93.74,411.767,95.896,406.079,98.35,405.799z"/>
<path fill-rule="evenodd" clip-rule="evenodd" fill="#FFFFFF" d="M795.35,461.799c22.932,3.756,27.583-18.954,29-40
	c1.896-1.397,8.802,3.13,13,6c4.175,2.854,8.023,7.043,12,10c8.442,6.277,20.051,11.926,23,22c-2.27,2.355-4.771-0.116-9,1
	c-8.758,2.312-25.258,23.771-26,29c-0.714,5.03,2.109,9.167,5,13C826.875,492.939,812.422,473.395,795.35,461.799z"/>
<path fill-rule="evenodd" clip-rule="evenodd" fill="#FFFFFF" d="M922.35,433.799c11.088,1.306,17.834,20.018,28,30
	c5.979,5.872,17.834,18.327,21,23c6.397,9.441-1.9-1.966-8-9c-1.54-1.775-2.758-1.858-8-6c0.443-1.453,0.878,0.102,2,0
	C945.115,459.701,935.199,445.283,922.35,433.799z"/>
<path fill-rule="evenodd" clip-rule="evenodd" fill="#FFFFFF" d="M22.35,443.799c0.176,7.104,7.312,13.656,7,20
	c-4.575-5.061-10.165-13.418-8-22c1.086,0.247,0.678,1.988,2,2C23.16,444.934,22.347,444.355,22.35,443.799z"/>
<path fill-rule="evenodd" clip-rule="evenodd" fill="#FFFFFF" d="M878.35,467.799c-1.936,2.313-6.092-1.568-9,1
	c-2.039,0.294-1.961,2.706-4,3c-2.611,4.096,2.107-4.284,4-5C872.992,466.49,875.857,466.958,878.35,467.799z"/>
<path fill-rule="evenodd" clip-rule="evenodd" fill="#FFFFFF" d="M926.35,505.799c-5.89-10.62-12.217-14.948-20-24
	c13.521,8.316,28.082,32.321,40,55c1.561,10.205,24.954,82.737,0,91c-7.662,2.537-11.693-4.234-17-9c0.732-1.78,1.818-0.144,3,0
	c-13.947-20.053-28.6-39.399-42-60c7.536,5.981,12.861,15.888,19,26c5.588,9.205,19.013,32.399,31,30
	c6.378-1.276,9.649-13.312,10-19c1.233-20.038-7.454-42.084-16-52c-0.268,3.601,1.848,4.819,2,8c-4.002-7.671-11.386-20.61-16-31
	c-0.302-2.635,1.385-3.282,4-3c-5.867-8.466-6.985-21.682-22-21c-0.897,5.564,2.186,7.147,4,10c-1.638-0.838-11.756-10.139-18-13
	c-2.348-10.069,8.747-13.734,6-18C907.033,476.817,915.066,497.017,926.35,505.799z M927.35,508.799c1.337,1.058-6.409-6.244-8-5
	c16.876,23.791,28.302,53.031,35,87C955.686,557.117,941.455,530.371,927.35,508.799z"/>
<path fill-rule="evenodd" clip-rule="evenodd" fill="#FFFFFF" d="M954.35,590.799c-6.698-33.969-18.124-63.209-35-87
	c1.591-1.244,9.337,6.058,8,5C941.455,530.371,955.686,557.117,954.35,590.799z"/>
<path fill-rule="evenodd" clip-rule="evenodd" fill="#FFFFFF" d="M969.35,476.799c2.381,3.285,5.58,5.754,7,10
	C972.055,483.635,969.434,479.994,969.35,476.799z"/>
<path fill-rule="evenodd" clip-rule="evenodd" fill="#FFFFFF" d="M243.35,491.799c0.019,1.633,5.651-1.603,7,1
	c0.04,1.486-5.939,1.447-1,2c-1.01,2.815-4.247-0.276-6,0c0.027,0.973,1.224,0.776,2,1c-24.305,15.361-59.394,19.939-79,40
	c-12.115-2.219-26.855-1.812-39-4c4.457-10.454,17.358-11.734,27-15c30.288-10.259,64.059-20.692,94-31c0.851,0.184,0.943-0.39,1-1
	C251.935,485.794,244.777,490.255,243.35,491.799z"/>
<path fill-rule="evenodd" clip-rule="evenodd" fill="#FFFFFF" d="M990.35,515.799c2.416,2.679,12.133,15.129,15,24
	C1003.178,536.876,994.783,523.104,990.35,515.799z"/>
<path fill-rule="evenodd" clip-rule="evenodd" fill="#FFFFFF" d="M860.35,522.799c13.42,0.861,11.613,19.457,22,26
	C875.156,543.987,866.381,532.105,860.35,522.799z"/>
<path fill-rule="evenodd" clip-rule="evenodd" fill="#FFFFFF" d="M1015.35,558.799c3.553,3.63,7.793,11.291,6,17
	C1020.347,571.328,1016.698,565.69,1015.35,558.799z"/>
<path fill-rule="evenodd" clip-rule="evenodd" fill="#FFFFFF" d="M896.35,582.799c11.42,11.915,21.983,33.349,30,52
	C916.516,617.3,907.415,599.068,896.35,582.799z"/>
<path fill-rule="evenodd" clip-rule="evenodd" fill="#FFFFFF" d="M930.35,606.799c7.489,1.523,14.883-8.207,15-20
	c2.066,2.601,2.12,7.213,2,12c-3.705-7.278-4.037,9.142-10,9c4.304,3.586,6.714-3.248,8-6c-0.409-3.606,1.826-1.37,1,1
	c-1.312,2.688-2.41,5.59-4,8C937.404,613.243,932.545,610.093,930.35,606.799z"/>
<path fill-rule="evenodd" clip-rule="evenodd" fill="#FFFFFF" d="M939.35,598.799c5.332,5.326-16.643,5.498-4,4
	C937.112,601.896,938.446,600.562,939.35,598.799z"/>
<path fill-rule="evenodd" clip-rule="evenodd" fill="#FFFFFF" d="M1012.35,672.799c-5.255-1.002,4.815-4.363,5-9
	c2.017,10.025-7.094,17.566-12,24C1005.47,684.563,1008.466,675.6,1012.35,672.799z"/>
</svg>
